<svg xmlns="http://www.w3.org/2000/svg" viewBox="0 0 860 450" role="img"><style>text{font-family:Pretendard;letter-spacing:0}</style><rect width="860" height="450" rx="26" fill="#ffffff"/><text x="42" y="58" font-size="34.7" font-weight="900" fill="#000000">Prompted image classification at 100 pairs</text><text x="42" y="91" font-size="20.2" fill="#000000">Top-1 accuracy under CLIP-style prompting on four recognition benchmarks.</text><line x1="78" y1="344.0" x2="788" y2="344.0" stroke="#d6ebf8"/><text x="60" y="350.0" text-anchor="end" font-size="20.2" font-weight="760" fill="#000000">0</text><line x1="78" y1="282.9" x2="788" y2="282.9" stroke="#d6ebf8"/><text x="60" y="288.9" text-anchor="end" font-size="20.2" font-weight="760" fill="#000000">5</text><line x1="78" y1="221.8" x2="788" y2="221.8" stroke="#d6ebf8"/><text x="60" y="227.8" text-anchor="end" font-size="20.2" font-weight="760" fill="#000000">10</text><line x1="78" y1="160.7" x2="788" y2="160.7" stroke="#d6ebf8"/><text x="60" y="166.7" text-anchor="end" font-size="20.2" font-weight="760" fill="#000000">15</text><rect x="108.8" y="166.2" width="50" height="177.8" rx="7" fill="#d49a8c"/><text x="133.8" y="156.2" text-anchor="middle" font-size="16.8" font-weight="900" fill="#000000">14.55</text><rect x="174.8" y="153.3" width="50" height="190.7" rx="7" fill="#76a99a"/><text x="199.8" y="143.3" text-anchor="middle" font-size="16.8" font-weight="900" fill="#000000">15.60</text><text x="166.8" y="382" text-anchor="middle" font-size="17.9" font-weight="900" fill="#000000">CIFAR-100</text><rect x="286.2" y="190.9" width="50" height="153.1" rx="7" fill="#d49a8c"/><text x="311.2" y="180.9" text-anchor="middle" font-size="16.8" font-weight="900" fill="#000000">12.53</text><rect x="352.2" y="167.6" width="50" height="176.4" rx="7" fill="#76a99a"/><text x="377.2" y="157.6" text-anchor="middle" font-size="16.8" font-weight="900" fill="#000000">14.43</text><text x="344.2" y="382" text-anchor="middle" font-size="17.9" font-weight="900" fill="#000000">CUB-200</text><rect x="463.8" y="275.2" width="50" height="68.8" rx="7" fill="#d49a8c"/><text x="488.8" y="265.2" text-anchor="middle" font-size="16.8" font-weight="900" fill="#000000">5.63</text><rect x="529.8" y="248.7" width="50" height="95.3" rx="7" fill="#76a99a"/><text x="554.8" y="238.7" text-anchor="middle" font-size="16.8" font-weight="900" fill="#000000">7.80</text><text x="521.8" y="382" text-anchor="middle" font-size="17.9" font-weight="900" fill="#000000">Cars</text><rect x="641.2" y="250.9" width="50" height="93.1" rx="7" fill="#d49a8c"/><text x="666.2" y="240.9" text-anchor="middle" font-size="16.8" font-weight="900" fill="#000000">7.62</text><rect x="707.2" y="247.7" width="50" height="96.3" rx="7" fill="#76a99a"/><text x="732.2" y="237.7" text-anchor="middle" font-size="16.8" font-weight="900" fill="#000000">7.88</text><text x="699.2" y="382" text-anchor="middle" font-size="17.9" font-weight="900" fill="#000000">ImageNet-1K</text><rect x="318" y="405" width="224" height="34" rx="16" fill="#ffffff" stroke="#c5d9e8" opacity=".94"/><rect x="342" y="415" width="15" height="15" rx="3" fill="#d49a8c"/><text x="366" y="429" font-size="19" font-weight="840" fill="#000000">Baseline</text><rect x="452" y="415" width="15" height="15" rx="3" fill="#76a99a"/><text x="476" y="429" font-size="19" font-weight="840" fill="#000000">RAHA</text></svg>