<svg xmlns="http://www.w3.org/2000/svg" role="img" viewBox="0 0 860 450"><style>text{font-family:Pretendard;letter-spacing:0}</style><rect width="860" height="450" fill="#fff" rx="26"/><text x="42" y="58" fill="#000" font-size="34.7" font-weight="900">Prompted image classification at 100 pairs</text><text x="42" y="91" fill="#000" font-size="20.2">Top-1 accuracy under CLIP-style prompting on four recognition benchmarks.</text><line x1="78" x2="788" y1="344" y2="344" stroke="#d6ebf8"/><text x="60" y="350" fill="#000" font-size="20.2" font-weight="760" text-anchor="end">0</text><line x1="78" x2="788" y1="282.9" y2="282.9" stroke="#d6ebf8"/><text x="60" y="288.9" fill="#000" font-size="20.2" font-weight="760" text-anchor="end">5</text><line x1="78" x2="788" y1="221.8" y2="221.8" stroke="#d6ebf8"/><text x="60" y="227.8" fill="#000" font-size="20.2" font-weight="760" text-anchor="end">10</text><line x1="78" x2="788" y1="160.7" y2="160.7" stroke="#d6ebf8"/><text x="60" y="166.7" fill="#000" font-size="20.2" font-weight="760" text-anchor="end">15</text><rect width="50" height="177.8" x="108.8" y="166.2" fill="#d49a8c" rx="7"/><text x="133.8" y="156.2" fill="#000" font-size="16.8" font-weight="900" text-anchor="middle">14.55</text><rect width="50" height="190.7" x="174.8" y="153.3" fill="#76a99a" rx="7"/><text x="199.8" y="143.3" fill="#000" font-size="16.8" font-weight="900" text-anchor="middle">15.60</text><text x="166.8" y="382" fill="#000" font-size="17.9" font-weight="900" text-anchor="middle">CIFAR-100</text><rect width="50" height="153.1" x="286.2" y="190.9" fill="#d49a8c" rx="7"/><text x="311.2" y="180.9" fill="#000" font-size="16.8" font-weight="900" text-anchor="middle">12.53</text><rect width="50" height="176.4" x="352.2" y="167.6" fill="#76a99a" rx="7"/><text x="377.2" y="157.6" fill="#000" font-size="16.8" font-weight="900" text-anchor="middle">14.43</text><text x="344.2" y="382" fill="#000" font-size="17.9" font-weight="900" text-anchor="middle">CUB-200</text><rect width="50" height="68.8" x="463.8" y="275.2" fill="#d49a8c" rx="7"/><text x="488.8" y="265.2" fill="#000" font-size="16.8" font-weight="900" text-anchor="middle">5.63</text><rect width="50" height="95.3" x="529.8" y="248.7" fill="#76a99a" rx="7"/><text x="554.8" y="238.7" fill="#000" font-size="16.8" font-weight="900" text-anchor="middle">7.80</text><text x="521.8" y="382" fill="#000" font-size="17.9" font-weight="900" text-anchor="middle">Cars</text><rect width="50" height="93.1" x="641.2" y="250.9" fill="#d49a8c" rx="7"/><text x="666.2" y="240.9" fill="#000" font-size="16.8" font-weight="900" text-anchor="middle">7.62</text><rect width="50" height="96.3" x="707.2" y="247.7" fill="#76a99a" rx="7"/><text x="732.2" y="237.7" fill="#000" font-size="16.8" font-weight="900" text-anchor="middle">7.88</text><text x="699.2" y="382" fill="#000" font-size="17.9" font-weight="900" text-anchor="middle">ImageNet-1K</text><rect width="224" height="34" x="318" y="405" fill="#fff" stroke="#c5d9e8" opacity=".94" rx="16"/><rect width="15" height="15" x="342" y="415" fill="#d49a8c" rx="3"/><text x="366" y="429" fill="#000" font-size="19" font-weight="840">Baseline</text><rect width="15" height="15" x="452" y="415" fill="#76a99a" rx="3"/><text x="476" y="429" fill="#000" font-size="19" font-weight="840">RAHA</text></svg>