<svg xmlns="http://www.w3.org/2000/svg" role="img" viewBox="0 0 940 790"><style>text{font-family:Pretendard;letter-spacing:0}</style><defs><marker id="arrowMot" markerHeight="9" markerWidth="9" orient="auto" refX="7" refY="5" viewBox="0 0 10 10"><path fill="#1d76bb" d="M0 0L10 5L0 10Z"/></marker><linearGradient id="rankGrad" x1="0" x2="1"><stop offset="0" stop-color="#e7f0e9"/><stop offset="1" stop-color="#eef3f8"/></linearGradient><linearGradient id="hypGrad" x1="0" x2="0" y1="0" y2="1"><stop offset="0" stop-color="#eef3f8"/><stop offset="1" stop-color="#e7f0e9"/></linearGradient></defs><rect width="940" height="790" fill="#fff" rx="28"/><rect width="892" height="742" x="24" y="24" fill="#fff" stroke="#c5d9e8" rx="22"/><text x="470" y="66" fill="#000" font-size="37" font-weight="900" text-anchor="middle">Rank structure meets hyperbolic geometry</text><text x="470" y="97" fill="#000" font-size="19" text-anchor="middle">LoRS supplies low-rank image-text relations.</text><text x="470" y="121" fill="#000" font-size="19" text-anchor="middle">MERU supplies hyperbolic image-text hierarchy.</text><g transform="translate(58,132)"><rect width="350" height="320" x="0" y="0" fill="#f7f1e8" stroke="#c5d9e8" rx="22"/><text x="26" y="44" fill="#000" font-size="35.8" font-weight="900">LoRS <tspan font-size="17.9" font-weight="850">(ICML 2024)</tspan></text><text x="26" y="76" fill="#0f8f79" font-size="17.9" font-weight="850">low-rank image-text relations</text><g transform="translate(27,106)"><rect width="120" height="108" x="0" y="0" fill="#fff" stroke="#c5d9e8" rx="12"/><rect width="11" height="11" x="14" y="14" fill="#78a99a" opacity=".34" rx="2"/><rect width="11" height="11" x="30" y="14" fill="#9fb7d9" opacity=".86" rx="2"/><rect width="11" height="11" x="46" y="14" fill="#f2dfaa" opacity=".34" rx="2"/><rect width="11" height="11" x="62" y="14" fill="#d49a8c" opacity=".34" rx="2"/><rect width="11" height="11" x="78" y="14" fill="#78a99a" opacity=".86" rx="2"/><rect width="11" height="11" x="94" y="14" fill="#9fb7d9" opacity=".34" rx="2"/><rect width="11" height="11" x="14" y="29" fill="#9fb7d9" opacity=".86" rx="2"/><rect width="11" height="11" x="30" y="29" fill="#f2dfaa" opacity=".86" rx="2"/><rect width="11" height="11" x="46" y="29" fill="#d49a8c" opacity=".86" rx="2"/><rect width="11" height="11" x="62" y="29" fill="#78a99a" opacity=".86" rx="2"/><rect width="11" height="11" x="78" y="29" fill="#9fb7d9" opacity=".86" rx="2"/><rect width="11" height="11" x="94" y="29" fill="#f2dfaa" opacity=".86" rx="2"/><rect width="11" height="11" x="14" y="44" fill="#f2dfaa" opacity=".86" rx="2"/><rect width="11" height="11" x="30" y="44" fill="#d49a8c" opacity=".86" rx="2"/><rect width="11" height="11" x="46" y="44" fill="#78a99a" opacity=".86" rx="2"/><rect width="11" height="11" x="62" y="44" fill="#9fb7d9" opacity=".86" rx="2"/><rect width="11" height="11" x="78" y="44" fill="#f2dfaa" opacity=".86" rx="2"/><rect width="11" height="11" x="94" y="44" fill="#d49a8c" opacity=".86" rx="2"/><rect width="11" height="11" x="14" y="59" fill="#d49a8c" opacity=".86" rx="2"/><rect width="11" height="11" x="30" y="59" fill="#78a99a" opacity=".86" rx="2"/><rect width="11" height="11" x="46" y="59" fill="#9fb7d9" opacity=".86" rx="2"/><rect width="11" height="11" x="62" y="59" fill="#f2dfaa" opacity=".86" rx="2"/><rect width="11" height="11" x="78" y="59" fill="#d49a8c" opacity=".86" rx="2"/><rect width="11" height="11" x="94" y="59" fill="#78a99a" opacity=".86" rx="2"/><rect width="11" height="11" x="14" y="74" fill="#78a99a" opacity=".34" rx="2"/><rect width="11" height="11" x="30" y="74" fill="#9fb7d9" opacity=".86" rx="2"/><rect width="11" height="11" x="46" y="74" fill="#f2dfaa" opacity=".34" rx="2"/><rect width="11" height="11" x="62" y="74" fill="#d49a8c" opacity=".34" rx="2"/><rect width="11" height="11" x="78" y="74" fill="#78a99a" opacity=".86" rx="2"/><rect width="11" height="11" x="94" y="74" fill="#9fb7d9" opacity=".34" rx="2"/><text x="60" y="136" fill="#000" font-size="17.9" font-weight="900" text-anchor="middle">S</text><text x="148" y="60" fill="#000" font-size="29.1" font-weight="900">~=</text><rect width="46" height="92" x="184" y="8" fill="#e7f0e9" stroke="#cbdccd" rx="10"/><rect width="74" height="46" x="236" y="31" fill="#eef3f8" stroke="#cfdae8" rx="10"/><text x="207" y="136" fill="#000" font-size="17.9" font-weight="900" text-anchor="middle">U</text><text x="273" y="136" fill="#000" font-size="17.9" font-weight="900" text-anchor="middle">V<tspan baseline-shift="super">T</tspan>R</text></g><rect width="138.4" height="34" x="105.8" y="266" fill="#e7f0e9" stroke="#cbdccd" rx="17"/><text x="175" y="288" fill="#000" font-size="19" font-weight="850" text-anchor="middle">Rank-Aware</text></g><g transform="translate(532,132)"><rect width="350" height="320" x="0" y="0" fill="#f7f1e8" stroke="#c5d9e8" rx="22"/><text x="26" y="44" fill="#000" font-size="35.8" font-weight="900">MERU <tspan font-size="17.9" font-weight="850">(ICML 2024)</tspan></text><text x="26" y="76" fill="#1d76bb" font-size="17.9" font-weight="850">hierarchical image-text geometry</text><g transform="translate(42,94)"><path fill="url(#hypGrad)" stroke="#c5d9e8" stroke-width="2.2" d="M52 12C88 62 100 118 120 178C140 118 152 62 188 12C150 31 90 31 52 12Z"/><ellipse cx="120" cy="30" fill="none" stroke="#d9cec1" stroke-width="1.4" rx="68" ry="14"/><ellipse cx="120" cy="64" fill="none" stroke="#d9cec1" stroke-width="1.4" rx="54" ry="11"/><ellipse cx="120" cy="102" fill="none" stroke="#d9cec1" stroke-width="1.4" rx="38" ry="8"/><ellipse cx="120" cy="140" fill="none" stroke="#d9cec1" stroke-width="1.4" rx="24" ry="6"/><ellipse cx="120" cy="170" fill="none" stroke="#d9cec1" stroke-width="1.4" rx="10" ry="3.5"/><circle cx="120" cy="168" r="13" fill="#f2dfaa" stroke="#fff" stroke-width="4"/><circle cx="83" cy="52" r="11" fill="#9fb7d9" stroke="#fff" stroke-width="3"/><rect width="22" height="22" x="150" y="46" fill="#78a99a" stroke="#fff" stroke-width="3" rx="7"/><path fill="none" stroke="#8f8378" stroke-width="2.2" d="M120 168C110 120 100 78 83 52M120 168C132 120 143 78 161 57"/><text x="214" y="48" fill="#000" font-size="17.9" font-weight="850">specific</text><text x="214" y="174" fill="#000" font-size="17.9" font-weight="850">generic</text></g><rect width="125.4" height="34" x="112.3" y="266" fill="#eef3f8" stroke="#cfdae8" rx="17"/><text x="175" y="288" fill="#000" font-size="16.8" font-weight="850" text-anchor="middle">Hyperbolic</text></g><path fill="none" stroke="#1d76bb" stroke-linecap="round" stroke-width="4.8" marker-end="url(#arrowMot)" d="M260 472C322 518 372 552 416 584"/><path fill="none" stroke="#1d76bb" stroke-linecap="round" stroke-width="4.8" marker-end="url(#arrowMot)" d="M680 472C618 518 568 552 524 584"/><g transform="translate(190,602)"><rect width="560" height="150" x="0" y="0" fill="url(#rankGrad)" stroke="#cbdccd" stroke-width="2" rx="24"/><text x="280" y="47" fill="#000" font-size="44.8" font-weight="950" text-anchor="middle">RAHA</text><text x="280" y="80" fill="#000" font-size="20.2" font-weight="850" text-anchor="middle">Rank-Aware Hyperbolic Alignment</text><rect width="174.2" height="34" x="44.9" y="102" fill="#fff" stroke="#c5d9e8" rx="17"/><text x="132" y="124" fill="#000" font-size="16.8" font-weight="850" text-anchor="middle">range relevance</text><rect width="164.4" height="34" x="197.8" y="102" fill="#fff" stroke="#c5d9e8" rx="17"/><text x="280" y="124" fill="#000" font-size="16.8" font-weight="850" text-anchor="middle">hyperbolic ITC</text><rect width="183.9" height="34" x="336" y="102" fill="#fff" stroke="#c5d9e8" rx="17"/><text x="428" y="124" fill="#000" font-size="16.8" font-weight="850" text-anchor="middle">residual control</text></g></svg>