<svg xmlns="http://www.w3.org/2000/svg" viewBox="0 0 940 790" role="img"><style>text{font-family:Pretendard;letter-spacing:0}</style><defs><marker id="arrowMot" viewBox="0 0 10 10" refX="7" refY="5" markerWidth="9" markerHeight="9" orient="auto"><path d="M0 0L10 5L0 10Z" fill="#1d76bb"/></marker><linearGradient id="rankGrad" x1="0" x2="1"><stop offset="0" stop-color="#e7f0e9"/><stop offset="1" stop-color="#eef3f8"/></linearGradient><linearGradient id="hypGrad" x1="0" x2="0" y1="0" y2="1"><stop offset="0" stop-color="#eef3f8"/><stop offset="1" stop-color="#e7f0e9"/></linearGradient></defs><rect width="940" height="790" rx="28" fill="#ffffff"/><rect x="24" y="24" width="892" height="742" rx="22" fill="#ffffff" stroke="#c5d9e8"/><text x="470" y="66" text-anchor="middle" font-size="32.3" font-weight="900" fill="#000000">Rank structure meets hyperbolic geometry</text><text x="470" y="97" text-anchor="middle" font-size="16.7" fill="#000000">LoRS supplies low-rank image-text relations.</text><text x="470" y="121" text-anchor="middle" font-size="16.7" fill="#000000">MERU supplies hyperbolic image-text hierarchy.</text><g transform="translate(58,132)"><rect x="0" y="0" width="350" height="320" rx="22" fill="#f7f1e8" stroke="#c5d9e8"/><text x="26" y="44" font-size="31.4" font-weight="900" fill="#000000">LoRS <tspan font-size="15.7" font-weight="850">(ICML 2024)</tspan></text><text x="26" y="76" font-size="15.7" font-weight="850" fill="#0f8f79">low-rank image-text relations</text><g transform="translate(27,106)"><rect x="0" y="0" width="120" height="108" rx="12" fill="#ffffff" stroke="#c5d9e8"/><rect x="14" y="14" width="11" height="11" rx="2" fill="#78a99a" opacity="0.34"/><rect x="30" y="14" width="11" height="11" rx="2" fill="#9fb7d9" opacity="0.86"/><rect x="46" y="14" width="11" height="11" rx="2" fill="#f2dfaa" opacity="0.34"/><rect x="62" y="14" width="11" height="11" rx="2" fill="#d49a8c" opacity="0.34"/><rect x="78" y="14" width="11" height="11" rx="2" fill="#78a99a" opacity="0.86"/><rect x="94" y="14" width="11" height="11" rx="2" fill="#9fb7d9" opacity="0.34"/><rect x="14" y="29" width="11" height="11" rx="2" fill="#9fb7d9" opacity="0.86"/><rect x="30" y="29" width="11" height="11" rx="2" fill="#f2dfaa" opacity="0.86"/><rect x="46" y="29" width="11" height="11" rx="2" fill="#d49a8c" opacity="0.86"/><rect x="62" y="29" width="11" height="11" rx="2" fill="#78a99a" opacity="0.86"/><rect x="78" y="29" width="11" height="11" rx="2" fill="#9fb7d9" opacity="0.86"/><rect x="94" y="29" width="11" height="11" rx="2" fill="#f2dfaa" opacity="0.86"/><rect x="14" y="44" width="11" height="11" rx="2" fill="#f2dfaa" opacity="0.86"/><rect x="30" y="44" width="11" height="11" rx="2" fill="#d49a8c" opacity="0.86"/><rect x="46" y="44" width="11" height="11" rx="2" fill="#78a99a" opacity="0.86"/><rect x="62" y="44" width="11" height="11" rx="2" fill="#9fb7d9" opacity="0.86"/><rect x="78" y="44" width="11" height="11" rx="2" fill="#f2dfaa" opacity="0.86"/><rect x="94" y="44" width="11" height="11" rx="2" fill="#d49a8c" opacity="0.86"/><rect x="14" y="59" width="11" height="11" rx="2" fill="#d49a8c" opacity="0.86"/><rect x="30" y="59" width="11" height="11" rx="2" fill="#78a99a" opacity="0.86"/><rect x="46" y="59" width="11" height="11" rx="2" fill="#9fb7d9" opacity="0.86"/><rect x="62" y="59" width="11" height="11" rx="2" fill="#f2dfaa" opacity="0.86"/><rect x="78" y="59" width="11" height="11" rx="2" fill="#d49a8c" opacity="0.86"/><rect x="94" y="59" width="11" height="11" rx="2" fill="#78a99a" opacity="0.86"/><rect x="14" y="74" width="11" height="11" rx="2" fill="#78a99a" opacity="0.34"/><rect x="30" y="74" width="11" height="11" rx="2" fill="#9fb7d9" opacity="0.86"/><rect x="46" y="74" width="11" height="11" rx="2" fill="#f2dfaa" opacity="0.34"/><rect x="62" y="74" width="11" height="11" rx="2" fill="#d49a8c" opacity="0.34"/><rect x="78" y="74" width="11" height="11" rx="2" fill="#78a99a" opacity="0.86"/><rect x="94" y="74" width="11" height="11" rx="2" fill="#9fb7d9" opacity="0.34"/><text x="60" y="136" text-anchor="middle" font-size="15.7" font-weight="900" fill="#000000">S</text><text x="148" y="60" font-size="25.5" font-weight="900" fill="#000000">~=</text><rect x="184" y="8" width="46" height="92" rx="10" fill="#e7f0e9" stroke="#cbdccd"/><rect x="236" y="31" width="74" height="46" rx="10" fill="#eef3f8" stroke="#cfdae8"/><text x="207" y="136" text-anchor="middle" font-size="15.7" font-weight="900" fill="#000000">U</text><text x="273" y="136" text-anchor="middle" font-size="15.7" font-weight="900" fill="#000000">V<tspan baseline-shift="super">T</tspan>R</text></g><rect x="112.7" y="266.0" width="124.6" height="34" rx="17" fill="#e7f0e9" stroke="#cbdccd"/><text x="175.0" y="288.0" text-anchor="middle" font-size="16.7" font-weight="850" fill="#000000">Rank-Aware</text></g><g transform="translate(532,132)"><rect x="0" y="0" width="350" height="320" rx="22" fill="#f7f1e8" stroke="#c5d9e8"/><text x="26" y="44" font-size="31.4" font-weight="900" fill="#000000">MERU <tspan font-size="15.7" font-weight="850">(ICML 2024)</tspan></text><text x="26" y="76" font-size="15.7" font-weight="850" fill="#1d76bb">hierarchical image-text geometry</text><g transform="translate(42,94)"><path d="M52 12C88 62 100 118 120 178C140 118 152 62 188 12C150 31 90 31 52 12Z" fill="url(#hypGrad)" stroke="#c5d9e8" stroke-width="2.2"/><ellipse cx="120" cy="30" rx="68" ry="14" fill="none" stroke="#d9cec1" stroke-width="1.4"/><ellipse cx="120" cy="64" rx="54" ry="11" fill="none" stroke="#d9cec1" stroke-width="1.4"/><ellipse cx="120" cy="102" rx="38" ry="8" fill="none" stroke="#d9cec1" stroke-width="1.4"/><ellipse cx="120" cy="140" rx="24" ry="6" fill="none" stroke="#d9cec1" stroke-width="1.4"/><ellipse cx="120" cy="170" rx="10" ry="3.5" fill="none" stroke="#d9cec1" stroke-width="1.4"/><circle cx="120" cy="168" r="13" fill="#f2dfaa" stroke="#ffffff" stroke-width="4"/><circle cx="83" cy="52" r="11" fill="#9fb7d9" stroke="#ffffff" stroke-width="3"/><rect x="150" y="46" width="22" height="22" rx="7" fill="#78a99a" stroke="#ffffff" stroke-width="3"/><path d="M120 168C110 120 100 78 83 52M120 168C132 120 143 78 161 57" fill="none" stroke="#8f8378" stroke-width="2.2"/><text x="214" y="48" font-size="15.7" font-weight="850" fill="#000000">specific</text><text x="214" y="174" font-size="15.7" font-weight="850" fill="#000000">generic</text></g><rect x="118.4" y="266.0" width="113.3" height="34" rx="17" fill="#eef3f8" stroke="#cfdae8"/><text x="175.0" y="288.0" text-anchor="middle" font-size="14.7" font-weight="850" fill="#000000">Hyperbolic</text></g><path d="M260 472C322 518 372 552 416 584" fill="none" stroke="#1d76bb" stroke-width="4.8" stroke-linecap="round" marker-end="url(#arrowMot)"/><path d="M680 472C618 518 568 552 524 584" fill="none" stroke="#1d76bb" stroke-width="4.8" stroke-linecap="round" marker-end="url(#arrowMot)"/><g transform="translate(190,602)"><rect x="0" y="0" width="560" height="150" rx="24" fill="url(#rankGrad)" stroke="#cbdccd" stroke-width="2"/><text x="280" y="47" text-anchor="middle" font-size="39.2" font-weight="950" fill="#000000">RAHA</text><text x="280" y="80" text-anchor="middle" font-size="17.6" font-weight="850" fill="#000000">Rank-Aware Hyperbolic Alignment</text><rect x="54.1" y="102.0" width="155.9" height="34" rx="17" fill="#ffffff" stroke="#c5d9e8"/><text x="132.0" y="124.0" text-anchor="middle" font-size="14.7" font-weight="850" fill="#000000">range relevance</text><rect x="206.3" y="102.0" width="147.4" height="34" rx="17" fill="#ffffff" stroke="#c5d9e8"/><text x="280.0" y="124.0" text-anchor="middle" font-size="14.7" font-weight="850" fill="#000000">hyperbolic ITC</text><rect x="345.8" y="102.0" width="164.4" height="34" rx="17" fill="#ffffff" stroke="#c5d9e8"/><text x="428.0" y="124.0" text-anchor="middle" font-size="14.7" font-weight="850" fill="#000000">residual control</text></g></svg>