<svg xmlns="http://www.w3.org/2000/svg" viewBox="0 0 860 940" role="img"><style>text{font-family:Pretendard;letter-spacing:0}</style><rect width="860" height="940" rx="26" fill="#ffffff"/><path d="M42 74H818" stroke="#1d76bb" stroke-width="3"/><text x="42" y="52" font-size="30.4" font-weight="900" fill="#000000">Retrieval across synthetic budgets</text><text x="42" y="101" font-size="17.6" fill="#000000">Same protocol with per-dataset y-axes. Higher is better.</text><rect x="306" y="112" width="248" height="36" rx="16" fill="#ffffff" stroke="#c5d9e8" opacity=".94"/><circle cx="332" cy="130" r="8" fill="#d49a8c"/><text x="350" y="136" font-size="16.7" font-weight="840" fill="#000000">Baseline</text><circle cx="454" cy="130" r="8" fill="#76a99a"/><text x="472" y="136" font-size="16.7" font-weight="840" fill="#000000">RAHA</text><g transform="translate(58,154)"><rect x="0" y="0" width="760" height="218" rx="10" fill="#ffffff" stroke="#6f9fd0" stroke-width="1.6"/><rect x="0" y="0" width="10" height="218" rx="5" fill="#6f9fd0" opacity=".86"/><rect x="20" y="14" width="144" height="30" rx="15" fill="#eaf3fb" stroke="#6f9fd0"/><text x="92" y="35" text-anchor="middle" font-size="23.5" font-weight="900" fill="#000000">Flickr8k</text><line x1="72" y1="64" x2="72" y2="170" stroke="#9fb7d9" stroke-width="1.5"/><line x1="72" y1="170" x2="712" y2="170" stroke="#9fb7d9" stroke-width="1.5"/><line x1="72" y1="170.0" x2="712" y2="170.0" stroke="#d6ebf8"/><text x="54" y="176.0" text-anchor="end" font-size="17.6" font-weight="760" fill="#000000">0</text><line x1="72" y1="143.5" x2="712" y2="143.5" stroke="#d6ebf8"/><text x="54" y="149.5" text-anchor="end" font-size="17.6" font-weight="760" fill="#000000">10</text><line x1="72" y1="117.0" x2="712" y2="117.0" stroke="#d6ebf8"/><text x="54" y="123.0" text-anchor="end" font-size="17.6" font-weight="760" fill="#000000">20</text><line x1="72" y1="90.5" x2="712" y2="90.5" stroke="#d6ebf8"/><text x="54" y="96.5" text-anchor="end" font-size="17.6" font-weight="760" fill="#000000">30</text><line x1="72" y1="64.0" x2="712" y2="64.0" stroke="#d6ebf8"/><text x="54" y="70.0" text-anchor="end" font-size="17.6" font-weight="760" fill="#000000">40</text><text x="72.0" y="201" text-anchor="middle" font-size="15.7" font-weight="850" fill="#000000">100</text><rect x="47.0" y="209" width="50" height="6" rx="3" fill="#c3b2dc" opacity=".95"/><text x="285.3" y="201" text-anchor="middle" font-size="15.7" font-weight="850" fill="#000000">200</text><rect x="260.3" y="209" width="50" height="6" rx="3" fill="#9fb7d9" opacity=".95"/><text x="498.7" y="201" text-anchor="middle" font-size="15.7" font-weight="850" fill="#000000">500</text><rect x="473.7" y="209" width="50" height="6" rx="3" fill="#ead48f" opacity=".95"/><text x="712.0" y="201" text-anchor="middle" font-size="15.7" font-weight="850" fill="#000000">1000</text><rect x="687.0" y="209" width="50" height="6" rx="3" fill="#bfd4a7" opacity=".95"/><path d="M72.0,115.9 L285.3,118.3 L498.7,101.4 L712.0,88.9" fill="none" stroke="#d49a8c" stroke-width="5" stroke-linecap="round" stroke-linejoin="round"/><circle cx="72.0" cy="115.9" r="7" fill="#c3b2dc" stroke="#d49a8c" stroke-width="4.5"/><text x="72.0" y="139.9" text-anchor="middle" font-size="15.7" font-weight="900" fill="#000000">20.4</text><circle cx="285.3" cy="118.3" r="7" fill="#9fb7d9" stroke="#d49a8c" stroke-width="4.5"/><text x="285.3" y="142.3" text-anchor="middle" font-size="15.7" font-weight="900" fill="#000000">19.5</text><circle cx="498.7" cy="101.4" r="7" fill="#ead48f" stroke="#d49a8c" stroke-width="4.5"/><text x="498.7" y="125.4" text-anchor="middle" font-size="15.7" font-weight="900" fill="#000000">25.9</text><circle cx="712.0" cy="88.9" r="7" fill="#bfd4a7" stroke="#d49a8c" stroke-width="4.5"/><text x="712.0" y="112.9" text-anchor="middle" font-size="15.7" font-weight="900" fill="#000000">30.6</text><path d="M72.0,115.9 L285.3,103.0 L498.7,88.6 L712.0,71.7" fill="none" stroke="#76a99a" stroke-width="5" stroke-linecap="round" stroke-linejoin="round"/><circle cx="72.0" cy="115.9" r="7" fill="#c3b2dc" stroke="#76a99a" stroke-width="4.5"/><text x="72.0" y="103.9" text-anchor="middle" font-size="15.7" font-weight="900" fill="#000000">20.4</text><circle cx="285.3" cy="103.0" r="7" fill="#9fb7d9" stroke="#76a99a" stroke-width="4.5"/><text x="285.3" y="91.0" text-anchor="middle" font-size="15.7" font-weight="900" fill="#000000">25.3</text><circle cx="498.7" cy="88.6" r="7" fill="#ead48f" stroke="#76a99a" stroke-width="4.5"/><text x="498.7" y="76.6" text-anchor="middle" font-size="15.7" font-weight="900" fill="#000000">30.7</text><circle cx="712.0" cy="71.7" r="7" fill="#bfd4a7" stroke="#76a99a" stroke-width="4.5"/><text x="712.0" y="59.7" text-anchor="middle" font-size="15.7" font-weight="900" fill="#000000">37.1</text></g><g transform="translate(58,392)"><rect x="0" y="0" width="760" height="218" rx="10" fill="#ffffff" stroke="#76a99a" stroke-width="1.6"/><rect x="0" y="0" width="10" height="218" rx="5" fill="#76a99a" opacity=".86"/><rect x="20" y="14" width="144" height="30" rx="15" fill="#e9f3ef" stroke="#76a99a"/><text x="92" y="35" text-anchor="middle" font-size="23.5" font-weight="900" fill="#000000">Flickr30k</text><line x1="72" y1="64" x2="72" y2="170" stroke="#9fb7d9" stroke-width="1.5"/><line x1="72" y1="170" x2="712" y2="170" stroke="#9fb7d9" stroke-width="1.5"/><line x1="72" y1="170.0" x2="712" y2="170.0" stroke="#d6ebf8"/><text x="54" y="176.0" text-anchor="end" font-size="17.6" font-weight="760" fill="#000000">0</text><line x1="72" y1="143.5" x2="712" y2="143.5" stroke="#d6ebf8"/><text x="54" y="149.5" text-anchor="end" font-size="17.6" font-weight="760" fill="#000000">10</text><line x1="72" y1="117.0" x2="712" y2="117.0" stroke="#d6ebf8"/><text x="54" y="123.0" text-anchor="end" font-size="17.6" font-weight="760" fill="#000000">20</text><line x1="72" y1="90.5" x2="712" y2="90.5" stroke="#d6ebf8"/><text x="54" y="96.5" text-anchor="end" font-size="17.6" font-weight="760" fill="#000000">30</text><line x1="72" y1="64.0" x2="712" y2="64.0" stroke="#d6ebf8"/><text x="54" y="70.0" text-anchor="end" font-size="17.6" font-weight="760" fill="#000000">40</text><text x="72.0" y="201" text-anchor="middle" font-size="15.7" font-weight="850" fill="#000000">100</text><rect x="47.0" y="209" width="50" height="6" rx="3" fill="#c3b2dc" opacity=".95"/><text x="285.3" y="201" text-anchor="middle" font-size="15.7" font-weight="850" fill="#000000">200</text><rect x="260.3" y="209" width="50" height="6" rx="3" fill="#9fb7d9" opacity=".95"/><text x="498.7" y="201" text-anchor="middle" font-size="15.7" font-weight="850" fill="#000000">500</text><rect x="473.7" y="209" width="50" height="6" rx="3" fill="#ead48f" opacity=".95"/><text x="712.0" y="201" text-anchor="middle" font-size="15.7" font-weight="850" fill="#000000">1000</text><rect x="687.0" y="209" width="50" height="6" rx="3" fill="#bfd4a7" opacity=".95"/><path d="M72.0,109.6 L285.3,111.7 L498.7,93.4 L712.0,94.7" fill="none" stroke="#d49a8c" stroke-width="5" stroke-linecap="round" stroke-linejoin="round"/><circle cx="72.0" cy="109.6" r="7" fill="#c3b2dc" stroke="#d49a8c" stroke-width="4.5"/><text x="72.0" y="133.6" text-anchor="middle" font-size="15.7" font-weight="900" fill="#000000">22.8</text><circle cx="285.3" cy="111.7" r="7" fill="#9fb7d9" stroke="#d49a8c" stroke-width="4.5"/><text x="285.3" y="135.7" text-anchor="middle" font-size="15.7" font-weight="900" fill="#000000">22.0</text><circle cx="498.7" cy="93.4" r="7" fill="#ead48f" stroke="#d49a8c" stroke-width="4.5"/><text x="498.7" y="117.4" text-anchor="middle" font-size="15.7" font-weight="900" fill="#000000">28.9</text><circle cx="712.0" cy="94.7" r="7" fill="#bfd4a7" stroke="#d49a8c" stroke-width="4.5"/><text x="712.0" y="118.7" text-anchor="middle" font-size="15.7" font-weight="900" fill="#000000">28.4</text><path d="M72.0,115.1 L285.3,101.9 L498.7,82.8 L712.0,69.3" fill="none" stroke="#76a99a" stroke-width="5" stroke-linecap="round" stroke-linejoin="round"/><circle cx="72.0" cy="115.1" r="7" fill="#c3b2dc" stroke="#76a99a" stroke-width="4.5"/><text x="72.0" y="103.1" text-anchor="middle" font-size="15.7" font-weight="900" fill="#000000">20.7</text><circle cx="285.3" cy="101.9" r="7" fill="#9fb7d9" stroke="#76a99a" stroke-width="4.5"/><text x="285.3" y="89.9" text-anchor="middle" font-size="15.7" font-weight="900" fill="#000000">25.7</text><circle cx="498.7" cy="82.8" r="7" fill="#ead48f" stroke="#76a99a" stroke-width="4.5"/><text x="498.7" y="70.8" text-anchor="middle" font-size="15.7" font-weight="900" fill="#000000">32.9</text><circle cx="712.0" cy="69.3" r="7" fill="#bfd4a7" stroke="#76a99a" stroke-width="4.5"/><text x="712.0" y="57.3" text-anchor="middle" font-size="15.7" font-weight="900" fill="#000000">38.0</text></g><g transform="translate(58,630)"><rect x="0" y="0" width="760" height="218" rx="10" fill="#ffffff" stroke="#d49a8c" stroke-width="1.6"/><rect x="0" y="0" width="10" height="218" rx="5" fill="#d49a8c" opacity=".86"/><rect x="20" y="14" width="144" height="30" rx="15" fill="#f8ebe7" stroke="#d49a8c"/><text x="92" y="35" text-anchor="middle" font-size="23.5" font-weight="900" fill="#000000">COCO</text><line x1="72" y1="64" x2="72" y2="170" stroke="#9fb7d9" stroke-width="1.5"/><line x1="72" y1="170" x2="712" y2="170" stroke="#9fb7d9" stroke-width="1.5"/><line x1="72" y1="170.0" x2="712" y2="170.0" stroke="#d6ebf8"/><text x="54" y="176.0" text-anchor="end" font-size="17.6" font-weight="760" fill="#000000">0</text><line x1="72" y1="143.5" x2="712" y2="143.5" stroke="#d6ebf8"/><text x="54" y="149.5" text-anchor="end" font-size="17.6" font-weight="760" fill="#000000">5</text><line x1="72" y1="117.0" x2="712" y2="117.0" stroke="#d6ebf8"/><text x="54" y="123.0" text-anchor="end" font-size="17.6" font-weight="760" fill="#000000">10</text><line x1="72" y1="90.5" x2="712" y2="90.5" stroke="#d6ebf8"/><text x="54" y="96.5" text-anchor="end" font-size="17.6" font-weight="760" fill="#000000">15</text><line x1="72" y1="64.0" x2="712" y2="64.0" stroke="#d6ebf8"/><text x="54" y="70.0" text-anchor="end" font-size="17.6" font-weight="760" fill="#000000">20</text><text x="72.0" y="201" text-anchor="middle" font-size="15.7" font-weight="850" fill="#000000">100</text><rect x="47.0" y="209" width="50" height="6" rx="3" fill="#c3b2dc" opacity=".95"/><text x="285.3" y="201" text-anchor="middle" font-size="15.7" font-weight="850" fill="#000000">200</text><rect x="260.3" y="209" width="50" height="6" rx="3" fill="#9fb7d9" opacity=".95"/><text x="498.7" y="201" text-anchor="middle" font-size="15.7" font-weight="850" fill="#000000">500</text><rect x="473.7" y="209" width="50" height="6" rx="3" fill="#ead48f" opacity=".95"/><text x="712.0" y="201" text-anchor="middle" font-size="15.7" font-weight="850" fill="#000000">1000</text><rect x="687.0" y="209" width="50" height="6" rx="3" fill="#bfd4a7" opacity=".95"/><path d="M72.0,132.9 L285.3,126.0 L498.7,110.6 L712.0,94.7" fill="none" stroke="#d49a8c" stroke-width="5" stroke-linecap="round" stroke-linejoin="round"/><circle cx="72.0" cy="132.9" r="7" fill="#c3b2dc" stroke="#d49a8c" stroke-width="4.5"/><text x="72.0" y="156.9" text-anchor="middle" font-size="15.7" font-weight="900" fill="#000000">7.0</text><circle cx="285.3" cy="126.0" r="7" fill="#9fb7d9" stroke="#d49a8c" stroke-width="4.5"/><text x="285.3" y="150.0" text-anchor="middle" font-size="15.7" font-weight="900" fill="#000000">8.3</text><circle cx="498.7" cy="110.6" r="7" fill="#ead48f" stroke="#d49a8c" stroke-width="4.5"/><text x="498.7" y="134.6" text-anchor="middle" font-size="15.7" font-weight="900" fill="#000000">11.2</text><circle cx="712.0" cy="94.7" r="7" fill="#bfd4a7" stroke="#d49a8c" stroke-width="4.5"/><text x="712.0" y="118.7" text-anchor="middle" font-size="15.7" font-weight="900" fill="#000000">14.2</text><path d="M72.0,131.8 L285.3,115.9 L498.7,97.4 L712.0,71.4" fill="none" stroke="#76a99a" stroke-width="5" stroke-linecap="round" stroke-linejoin="round"/><circle cx="72.0" cy="131.8" r="7" fill="#c3b2dc" stroke="#76a99a" stroke-width="4.5"/><text x="72.0" y="119.8" text-anchor="middle" font-size="15.7" font-weight="900" fill="#000000">7.2</text><circle cx="285.3" cy="115.9" r="7" fill="#9fb7d9" stroke="#76a99a" stroke-width="4.5"/><text x="285.3" y="103.9" text-anchor="middle" font-size="15.7" font-weight="900" fill="#000000">10.2</text><circle cx="498.7" cy="97.4" r="7" fill="#ead48f" stroke="#76a99a" stroke-width="4.5"/><text x="498.7" y="85.4" text-anchor="middle" font-size="15.7" font-weight="900" fill="#000000">13.7</text><circle cx="712.0" cy="71.4" r="7" fill="#bfd4a7" stroke="#76a99a" stroke-width="4.5"/><text x="712.0" y="59.4" text-anchor="middle" font-size="15.7" font-weight="900" fill="#000000">18.6</text></g><text x="430" y="912" text-anchor="middle" font-size="16.7" fill="#000000">Mean of image-retrieval and text-retrieval scores. Pair colors match the table.</text></svg>