<svg xmlns="http://www.w3.org/2000/svg" role="img" viewBox="0 0 860 940"><style>text{font-family:Pretendard;letter-spacing:0}</style><rect width="860" height="940" fill="#fff" rx="26"/><path stroke="#1d76bb" stroke-width="3" d="M42 74H818"/><text x="42" y="52" fill="#000" font-size="34.7" font-weight="900">Retrieval across synthetic budgets</text><text x="42" y="101" fill="#000" font-size="20.2">Same protocol with per-dataset y-axes. Higher is better.</text><rect width="248" height="36" x="306" y="112" fill="#fff" stroke="#c5d9e8" opacity=".94" rx="16"/><circle cx="332" cy="130" r="8" fill="#d49a8c"/><text x="350" y="136" fill="#000" font-size="19" font-weight="840">Baseline</text><circle cx="454" cy="130" r="8" fill="#76a99a"/><text x="472" y="136" fill="#000" font-size="19" font-weight="840">RAHA</text><g transform="translate(58,154)"><rect width="760" height="218" x="0" y="0" fill="#fff" stroke="#6f9fd0" stroke-width="1.6" rx="10"/><rect width="10" height="218" x="0" y="0" fill="#6f9fd0" opacity=".86" rx="5"/><rect width="144" height="30" x="20" y="14" fill="#eaf3fb" stroke="#6f9fd0" rx="15"/><text x="92" y="35" fill="#000" font-size="26.9" font-weight="900" text-anchor="middle">Flickr8k</text><line x1="72" x2="72" y1="64" y2="170" stroke="#9fb7d9" stroke-width="1.5"/><line x1="72" x2="712" y1="170" y2="170" stroke="#9fb7d9" stroke-width="1.5"/><line x1="72" x2="712" y1="170" y2="170" stroke="#d6ebf8"/><text x="54" y="176" fill="#000" font-size="20.2" font-weight="760" text-anchor="end">0</text><line x1="72" x2="712" y1="143.5" y2="143.5" stroke="#d6ebf8"/><text x="54" y="149.5" fill="#000" font-size="20.2" font-weight="760" text-anchor="end">10</text><line x1="72" x2="712" y1="117" y2="117" stroke="#d6ebf8"/><text x="54" y="123" fill="#000" font-size="20.2" font-weight="760" text-anchor="end">20</text><line x1="72" x2="712" y1="90.5" y2="90.5" stroke="#d6ebf8"/><text x="54" y="96.5" fill="#000" font-size="20.2" font-weight="760" text-anchor="end">30</text><line x1="72" x2="712" y1="64" y2="64" stroke="#d6ebf8"/><text x="54" y="70" fill="#000" font-size="20.2" font-weight="760" text-anchor="end">40</text><text x="72" y="201" fill="#000" font-size="17.9" font-weight="850" text-anchor="middle">100</text><rect width="50" height="6" x="47" y="209" fill="#c3b2dc" opacity=".95" rx="3"/><text x="285.3" y="201" fill="#000" font-size="17.9" font-weight="850" text-anchor="middle">200</text><rect width="50" height="6" x="260.3" y="209" fill="#9fb7d9" opacity=".95" rx="3"/><text x="498.7" y="201" fill="#000" font-size="17.9" font-weight="850" text-anchor="middle">500</text><rect width="50" height="6" x="473.7" y="209" fill="#ead48f" opacity=".95" rx="3"/><text x="712" y="201" fill="#000" font-size="17.9" font-weight="850" text-anchor="middle">1000</text><rect width="50" height="6" x="687" y="209" fill="#bfd4a7" opacity=".95" rx="3"/><path fill="none" stroke="#d49a8c" stroke-linecap="round" stroke-linejoin="round" stroke-width="5" d="M72.0,115.9 L285.3,118.3 L498.7,101.4 L712.0,88.9"/><circle cx="72" cy="115.9" r="7" fill="#c3b2dc" stroke="#d49a8c" stroke-width="4.5"/><text x="72" y="139.9" fill="#000" font-size="17.9" font-weight="900" text-anchor="middle">20.4</text><circle cx="285.3" cy="118.3" r="7" fill="#9fb7d9" stroke="#d49a8c" stroke-width="4.5"/><text x="285.3" y="142.3" fill="#000" font-size="17.9" font-weight="900" text-anchor="middle">19.5</text><circle cx="498.7" cy="101.4" r="7" fill="#ead48f" stroke="#d49a8c" stroke-width="4.5"/><text x="498.7" y="125.4" fill="#000" font-size="17.9" font-weight="900" text-anchor="middle">25.9</text><circle cx="712" cy="88.9" r="7" fill="#bfd4a7" stroke="#d49a8c" stroke-width="4.5"/><text x="712" y="112.9" fill="#000" font-size="17.9" font-weight="900" text-anchor="middle">30.6</text><path fill="none" stroke="#76a99a" stroke-linecap="round" stroke-linejoin="round" stroke-width="5" d="M72.0,115.9 L285.3,103.0 L498.7,88.6 L712.0,71.7"/><circle cx="72" cy="115.9" r="7" fill="#c3b2dc" stroke="#76a99a" stroke-width="4.5"/><text x="72" y="103.9" fill="#000" font-size="17.9" font-weight="900" text-anchor="middle">20.4</text><circle cx="285.3" cy="103" r="7" fill="#9fb7d9" stroke="#76a99a" stroke-width="4.5"/><text x="285.3" y="91" fill="#000" font-size="17.9" font-weight="900" text-anchor="middle">25.3</text><circle cx="498.7" cy="88.6" r="7" fill="#ead48f" stroke="#76a99a" stroke-width="4.5"/><text x="498.7" y="76.6" fill="#000" font-size="17.9" font-weight="900" text-anchor="middle">30.7</text><circle cx="712" cy="71.7" r="7" fill="#bfd4a7" stroke="#76a99a" stroke-width="4.5"/><text x="712" y="59.7" fill="#000" font-size="17.9" font-weight="900" text-anchor="middle">37.1</text></g><g transform="translate(58,392)"><rect width="760" height="218" x="0" y="0" fill="#fff" stroke="#76a99a" stroke-width="1.6" rx="10"/><rect width="10" height="218" x="0" y="0" fill="#76a99a" opacity=".86" rx="5"/><rect width="144" height="30" x="20" y="14" fill="#e9f3ef" stroke="#76a99a" rx="15"/><text x="92" y="35" fill="#000" font-size="26.9" font-weight="900" text-anchor="middle">Flickr30k</text><line x1="72" x2="72" y1="64" y2="170" stroke="#9fb7d9" stroke-width="1.5"/><line x1="72" x2="712" y1="170" y2="170" stroke="#9fb7d9" stroke-width="1.5"/><line x1="72" x2="712" y1="170" y2="170" stroke="#d6ebf8"/><text x="54" y="176" fill="#000" font-size="20.2" font-weight="760" text-anchor="end">0</text><line x1="72" x2="712" y1="143.5" y2="143.5" stroke="#d6ebf8"/><text x="54" y="149.5" fill="#000" font-size="20.2" font-weight="760" text-anchor="end">10</text><line x1="72" x2="712" y1="117" y2="117" stroke="#d6ebf8"/><text x="54" y="123" fill="#000" font-size="20.2" font-weight="760" text-anchor="end">20</text><line x1="72" x2="712" y1="90.5" y2="90.5" stroke="#d6ebf8"/><text x="54" y="96.5" fill="#000" font-size="20.2" font-weight="760" text-anchor="end">30</text><line x1="72" x2="712" y1="64" y2="64" stroke="#d6ebf8"/><text x="54" y="70" fill="#000" font-size="20.2" font-weight="760" text-anchor="end">40</text><text x="72" y="201" fill="#000" font-size="17.9" font-weight="850" text-anchor="middle">100</text><rect width="50" height="6" x="47" y="209" fill="#c3b2dc" opacity=".95" rx="3"/><text x="285.3" y="201" fill="#000" font-size="17.9" font-weight="850" text-anchor="middle">200</text><rect width="50" height="6" x="260.3" y="209" fill="#9fb7d9" opacity=".95" rx="3"/><text x="498.7" y="201" fill="#000" font-size="17.9" font-weight="850" text-anchor="middle">500</text><rect width="50" height="6" x="473.7" y="209" fill="#ead48f" opacity=".95" rx="3"/><text x="712" y="201" fill="#000" font-size="17.9" font-weight="850" text-anchor="middle">1000</text><rect width="50" height="6" x="687" y="209" fill="#bfd4a7" opacity=".95" rx="3"/><path fill="none" stroke="#d49a8c" stroke-linecap="round" stroke-linejoin="round" stroke-width="5" d="M72.0,109.6 L285.3,111.7 L498.7,93.4 L712.0,94.7"/><circle cx="72" cy="109.6" r="7" fill="#c3b2dc" stroke="#d49a8c" stroke-width="4.5"/><text x="72" y="133.6" fill="#000" font-size="17.9" font-weight="900" text-anchor="middle">22.8</text><circle cx="285.3" cy="111.7" r="7" fill="#9fb7d9" stroke="#d49a8c" stroke-width="4.5"/><text x="285.3" y="135.7" fill="#000" font-size="17.9" font-weight="900" text-anchor="middle">22.0</text><circle cx="498.7" cy="93.4" r="7" fill="#ead48f" stroke="#d49a8c" stroke-width="4.5"/><text x="498.7" y="117.4" fill="#000" font-size="17.9" font-weight="900" text-anchor="middle">28.9</text><circle cx="712" cy="94.7" r="7" fill="#bfd4a7" stroke="#d49a8c" stroke-width="4.5"/><text x="712" y="118.7" fill="#000" font-size="17.9" font-weight="900" text-anchor="middle">28.4</text><path fill="none" stroke="#76a99a" stroke-linecap="round" stroke-linejoin="round" stroke-width="5" d="M72.0,115.1 L285.3,101.9 L498.7,82.8 L712.0,69.3"/><circle cx="72" cy="115.1" r="7" fill="#c3b2dc" stroke="#76a99a" stroke-width="4.5"/><text x="72" y="103.1" fill="#000" font-size="17.9" font-weight="900" text-anchor="middle">20.7</text><circle cx="285.3" cy="101.9" r="7" fill="#9fb7d9" stroke="#76a99a" stroke-width="4.5"/><text x="285.3" y="89.9" fill="#000" font-size="17.9" font-weight="900" text-anchor="middle">25.7</text><circle cx="498.7" cy="82.8" r="7" fill="#ead48f" stroke="#76a99a" stroke-width="4.5"/><text x="498.7" y="70.8" fill="#000" font-size="17.9" font-weight="900" text-anchor="middle">32.9</text><circle cx="712" cy="69.3" r="7" fill="#bfd4a7" stroke="#76a99a" stroke-width="4.5"/><text x="712" y="57.3" fill="#000" font-size="17.9" font-weight="900" text-anchor="middle">38.0</text></g><g transform="translate(58,630)"><rect width="760" height="218" x="0" y="0" fill="#fff" stroke="#d49a8c" stroke-width="1.6" rx="10"/><rect width="10" height="218" x="0" y="0" fill="#d49a8c" opacity=".86" rx="5"/><rect width="144" height="30" x="20" y="14" fill="#f8ebe7" stroke="#d49a8c" rx="15"/><text x="92" y="35" fill="#000" font-size="26.9" font-weight="900" text-anchor="middle">COCO</text><line x1="72" x2="72" y1="64" y2="170" stroke="#9fb7d9" stroke-width="1.5"/><line x1="72" x2="712" y1="170" y2="170" stroke="#9fb7d9" stroke-width="1.5"/><line x1="72" x2="712" y1="170" y2="170" stroke="#d6ebf8"/><text x="54" y="176" fill="#000" font-size="20.2" font-weight="760" text-anchor="end">0</text><line x1="72" x2="712" y1="143.5" y2="143.5" stroke="#d6ebf8"/><text x="54" y="149.5" fill="#000" font-size="20.2" font-weight="760" text-anchor="end">5</text><line x1="72" x2="712" y1="117" y2="117" stroke="#d6ebf8"/><text x="54" y="123" fill="#000" font-size="20.2" font-weight="760" text-anchor="end">10</text><line x1="72" x2="712" y1="90.5" y2="90.5" stroke="#d6ebf8"/><text x="54" y="96.5" fill="#000" font-size="20.2" font-weight="760" text-anchor="end">15</text><line x1="72" x2="712" y1="64" y2="64" stroke="#d6ebf8"/><text x="54" y="70" fill="#000" font-size="20.2" font-weight="760" text-anchor="end">20</text><text x="72" y="201" fill="#000" font-size="17.9" font-weight="850" text-anchor="middle">100</text><rect width="50" height="6" x="47" y="209" fill="#c3b2dc" opacity=".95" rx="3"/><text x="285.3" y="201" fill="#000" font-size="17.9" font-weight="850" text-anchor="middle">200</text><rect width="50" height="6" x="260.3" y="209" fill="#9fb7d9" opacity=".95" rx="3"/><text x="498.7" y="201" fill="#000" font-size="17.9" font-weight="850" text-anchor="middle">500</text><rect width="50" height="6" x="473.7" y="209" fill="#ead48f" opacity=".95" rx="3"/><text x="712" y="201" fill="#000" font-size="17.9" font-weight="850" text-anchor="middle">1000</text><rect width="50" height="6" x="687" y="209" fill="#bfd4a7" opacity=".95" rx="3"/><path fill="none" stroke="#d49a8c" stroke-linecap="round" stroke-linejoin="round" stroke-width="5" d="M72.0,132.9 L285.3,126.0 L498.7,110.6 L712.0,94.7"/><circle cx="72" cy="132.9" r="7" fill="#c3b2dc" stroke="#d49a8c" stroke-width="4.5"/><text x="72" y="156.9" fill="#000" font-size="17.9" font-weight="900" text-anchor="middle">7.0</text><circle cx="285.3" cy="126" r="7" fill="#9fb7d9" stroke="#d49a8c" stroke-width="4.5"/><text x="285.3" y="150" fill="#000" font-size="17.9" font-weight="900" text-anchor="middle">8.3</text><circle cx="498.7" cy="110.6" r="7" fill="#ead48f" stroke="#d49a8c" stroke-width="4.5"/><text x="498.7" y="134.6" fill="#000" font-size="17.9" font-weight="900" text-anchor="middle">11.2</text><circle cx="712" cy="94.7" r="7" fill="#bfd4a7" stroke="#d49a8c" stroke-width="4.5"/><text x="712" y="118.7" fill="#000" font-size="17.9" font-weight="900" text-anchor="middle">14.2</text><path fill="none" stroke="#76a99a" stroke-linecap="round" stroke-linejoin="round" stroke-width="5" d="M72.0,131.8 L285.3,115.9 L498.7,97.4 L712.0,71.4"/><circle cx="72" cy="131.8" r="7" fill="#c3b2dc" stroke="#76a99a" stroke-width="4.5"/><text x="72" y="119.8" fill="#000" font-size="17.9" font-weight="900" text-anchor="middle">7.2</text><circle cx="285.3" cy="115.9" r="7" fill="#9fb7d9" stroke="#76a99a" stroke-width="4.5"/><text x="285.3" y="103.9" fill="#000" font-size="17.9" font-weight="900" text-anchor="middle">10.2</text><circle cx="498.7" cy="97.4" r="7" fill="#ead48f" stroke="#76a99a" stroke-width="4.5"/><text x="498.7" y="85.4" fill="#000" font-size="17.9" font-weight="900" text-anchor="middle">13.7</text><circle cx="712" cy="71.4" r="7" fill="#bfd4a7" stroke="#76a99a" stroke-width="4.5"/><text x="712" y="59.4" fill="#000" font-size="17.9" font-weight="900" text-anchor="middle">18.6</text></g><text x="430" y="912" fill="#000" font-size="19" text-anchor="middle">Mean of image-retrieval and text-retrieval scores. Pair colors match the table.</text></svg>