<svg xmlns="http://www.w3.org/2000/svg" viewBox="0 0 760 430" role="img"><style>text{font-family:Pretendard,Arial,sans-serif;letter-spacing:0}</style><rect width="760" height="430" rx="18" fill="#ffffff"/><rect x="496" y="18" width="14" height="14" rx="3" fill="#d49a8c"/><text x="520" y="30" text-anchor="start" font-size="14" font-weight="850" fill="#000000">Baseline</text><rect x="602" y="18" width="14" height="14" rx="3" fill="#76a99a"/><text x="626" y="30" text-anchor="start" font-size="14" font-weight="850" fill="#000000">RAHA</text><text x="44" y="42" text-anchor="middle" font-size="16" font-weight="900" fill="#000000">δ↓</text><line x1="96" y1="180.0" x2="692" y2="180.0" stroke="#c5d9e8" stroke-width="2"/><line x1="96" y1="48.0" x2="96" y2="180.0" stroke="#c5d9e8" stroke-width="2"/><line x1="96" y1="180.0" x2="692" y2="180.0" stroke="#c5d9e8" stroke-width="1.1"/><text x="82" y="185.0" text-anchor="end" font-size="13" font-weight="760" fill="#000000">0</text><line x1="96" y1="142.3" x2="692" y2="142.3" stroke="#d6ebf8" stroke-width="1.1"/><text x="82" y="147.28571428571428" text-anchor="end" font-size="13" font-weight="760" fill="#000000">2</text><line x1="96" y1="104.6" x2="692" y2="104.6" stroke="#d6ebf8" stroke-width="1.1"/><text x="82" y="109.57142857142857" text-anchor="end" font-size="13" font-weight="760" fill="#000000">4</text><line x1="96" y1="66.9" x2="692" y2="66.9" stroke="#d6ebf8" stroke-width="1.1"/><text x="82" y="71.85714285714286" text-anchor="end" font-size="13" font-weight="760" fill="#000000">6</text><text x="42" y="66" text-anchor="start" font-size="14" font-weight="900" fill="#000000">Image-side</text><rect x="138" y="93.3" width="38" height="86.7" rx="7" fill="#d49a8c"/><rect x="192" y="102.7" width="38" height="77.3" rx="7" fill="#76a99a"/><text x="157.0" y="86.25714285714285" text-anchor="middle" font-size="13" font-weight="900" fill="#000000">4.6</text><text x="211.0" y="95.6857142857143" text-anchor="middle" font-size="13" font-weight="900" fill="#000000">4.1</text><rect x="348" y="100.8" width="38" height="79.2" rx="7" fill="#d49a8c"/><rect x="402" y="85.7" width="38" height="94.3" rx="7" fill="#76a99a"/><text x="367.0" y="93.8" text-anchor="middle" font-size="13" font-weight="900" fill="#000000">4.2</text><text x="421.0" y="78.71428571428571" text-anchor="middle" font-size="13" font-weight="900" fill="#000000">5.0</text><rect x="558" y="59.3" width="38" height="120.7" rx="7" fill="#d49a8c"/><rect x="612" y="51.8" width="38" height="128.2" rx="7" fill="#76a99a"/><text x="577.0" y="52.3142857142857" text-anchor="middle" font-size="13" font-weight="900" fill="#000000">6.4</text><text x="631.0" y="44.77142857142857" text-anchor="middle" font-size="13" font-weight="900" fill="#000000">6.8</text><line x1="96" y1="368.0" x2="692" y2="368.0" stroke="#c5d9e8" stroke-width="2"/><line x1="96" y1="236.0" x2="96" y2="368.0" stroke="#c5d9e8" stroke-width="2"/><line x1="96" y1="368.0" x2="692" y2="368.0" stroke="#c5d9e8" stroke-width="1.1"/><text x="82" y="373.0" text-anchor="end" font-size="13" font-weight="760" fill="#000000">0</text><line x1="96" y1="330.3" x2="692" y2="330.3" stroke="#d6ebf8" stroke-width="1.1"/><text x="82" y="335.2857142857143" text-anchor="end" font-size="13" font-weight="760" fill="#000000">2</text><line x1="96" y1="292.6" x2="692" y2="292.6" stroke="#d6ebf8" stroke-width="1.1"/><text x="82" y="297.57142857142856" text-anchor="end" font-size="13" font-weight="760" fill="#000000">4</text><line x1="96" y1="254.9" x2="692" y2="254.9" stroke="#d6ebf8" stroke-width="1.1"/><text x="82" y="259.8571428571429" text-anchor="end" font-size="13" font-weight="760" fill="#000000">6</text><text x="42" y="254" text-anchor="start" font-size="14" font-weight="900" fill="#000000">Text-side</text><rect x="138" y="281.3" width="38" height="86.7" rx="7" fill="#d49a8c"/><rect x="192" y="298.2" width="38" height="69.8" rx="7" fill="#76a99a"/><text x="157.0" y="274.25714285714287" text-anchor="middle" font-size="13" font-weight="900" fill="#000000">4.6</text><text x="211.0" y="291.2285714285714" text-anchor="middle" font-size="13" font-weight="900" fill="#000000">3.7</text><text x="184" y="400" text-anchor="middle" font-size="18" font-weight="900" fill="#000000">100</text><rect x="348" y="292.6" width="38" height="75.4" rx="7" fill="#d49a8c"/><rect x="402" y="283.1" width="38" height="84.9" rx="7" fill="#76a99a"/><text x="367.0" y="285.57142857142856" text-anchor="middle" font-size="13" font-weight="900" fill="#000000">4.0</text><text x="421.0" y="276.1428571428571" text-anchor="middle" font-size="13" font-weight="900" fill="#000000">4.5</text><text x="394" y="400" text-anchor="middle" font-size="18" font-weight="900" fill="#000000">200</text><rect x="558" y="271.8" width="38" height="96.2" rx="7" fill="#d49a8c"/><rect x="612" y="247.3" width="38" height="120.7" rx="7" fill="#76a99a"/><text x="577.0" y="264.8285714285714" text-anchor="middle" font-size="13" font-weight="900" fill="#000000">5.1</text><text x="631.0" y="240.3142857142857" text-anchor="middle" font-size="13" font-weight="900" fill="#000000">6.4</text><text x="604" y="400" text-anchor="middle" font-size="18" font-weight="900" fill="#000000">500</text><text x="394.0" y="422" text-anchor="middle" font-size="15" font-weight="850" fill="#000000">Synthetic pairs</text></svg>