<svg xmlns="http://www.w3.org/2000/svg" viewBox="0 0 860 430" role="img"><style>text{font-family:Pretendard;letter-spacing:0}</style><rect width="860" height="430" rx="24" fill="#ffffff"/><rect x="18" y="18" width="824" height="394" rx="18" fill="#fbfdff" stroke="#c5d9e8"/><text x="40" y="58" font-size="37" font-weight="900" fill="#000000">Cross-architecture transfer</text><text x="40" y="91" font-size="20.2" fill="#000000">Flickr8k mean under replacement backbones and text encoders.</text><line x1="74" y1="354.0" x2="806" y2="354.0" stroke="#c5d9e8" stroke-width="1.7"/><text x="58" y="360.0" text-anchor="end" font-size="20.2" font-weight="760" fill="#000000">0</text><line x1="74" y1="284.0" x2="806" y2="284.0" stroke="#d6ebf8" stroke-width="1.2"/><text x="58" y="290.0" text-anchor="end" font-size="20.2" font-weight="760" fill="#000000">5</text><line x1="74" y1="214.0" x2="806" y2="214.0" stroke="#d6ebf8" stroke-width="1.2"/><text x="58" y="220.0" text-anchor="end" font-size="20.2" font-weight="760" fill="#000000">10</text><line x1="74" y1="144.0" x2="806" y2="144.0" stroke="#c5d9e8" stroke-width="1.7"/><text x="58" y="150.0" text-anchor="end" font-size="20.2" font-weight="760" fill="#000000">15</text><path d="M74 144V354H806" fill="none" stroke="#9fb7d9" stroke-width="1.8"/><rect x="125.0" y="251.8" width="62" height="102.2" rx="8" fill="#d49a8c"/><text x="156.0" y="239.8" text-anchor="middle" font-size="22.4" font-weight="900" fill="#000000">7.3</text><rect x="205.0" y="257.4" width="62" height="96.6" rx="8" fill="#76a99a"/><text x="236.0" y="245.4" text-anchor="middle" font-size="22.4" font-weight="900" fill="#000000">6.9</text><text x="196.0" y="390" text-anchor="middle" font-size="22.4" font-weight="900" fill="#000000">100</text><rect x="369.0" y="253.2" width="62" height="100.8" rx="8" fill="#d49a8c"/><text x="400.0" y="241.2" text-anchor="middle" font-size="22.4" font-weight="900" fill="#000000">7.2</text><rect x="449.0" y="232.2" width="62" height="121.8" rx="8" fill="#76a99a"/><text x="480.0" y="220.2" text-anchor="middle" font-size="22.4" font-weight="900" fill="#000000">8.7</text><text x="440.0" y="390" text-anchor="middle" font-size="22.4" font-weight="900" fill="#000000">200</text><rect x="613.0" y="232.2" width="62" height="121.8" rx="8" fill="#d49a8c"/><text x="644.0" y="220.2" text-anchor="middle" font-size="22.4" font-weight="900" fill="#000000">8.7</text><rect x="693.0" y="176.2" width="62" height="177.8" rx="8" fill="#76a99a"/><text x="724.0" y="164.2" text-anchor="middle" font-size="22.4" font-weight="900" fill="#000000">12.7</text><text x="684.0" y="390" text-anchor="middle" font-size="22.4" font-weight="900" fill="#000000">500</text><rect x="40" y="106" width="246" height="31" rx="15.5" fill="#fbfdff" stroke="#c5d9e8" opacity=".98"/><rect x="58" y="115" width="14" height="14" rx="3" fill="#d49a8c"/><text x="82" y="128" font-size="19" font-weight="840" fill="#000000">Baseline</text><rect x="176" y="115" width="14" height="14" rx="3" fill="#76a99a"/><text x="200" y="128" font-size="19" font-weight="840" fill="#000000">RAHA</text><path d="M64 386H804" stroke="#c5d9e8" stroke-width="2"/><text x="64" y="413" font-size="19" fill="#000000">Higher is better. Transfer improves as synthetic image-text capacity grows.</text></svg>