<svg xmlns="http://www.w3.org/2000/svg" role="img" viewBox="0 0 860 430"><style>text{font-family:Pretendard;letter-spacing:0}</style><rect width="860" height="430" fill="#fff" rx="24"/><rect width="824" height="394" x="18" y="18" fill="#fbfdff" stroke="#c5d9e8" rx="18"/><text x="40" y="58" fill="#000" font-size="37" font-weight="900">Cross-architecture transfer</text><text x="40" y="91" fill="#000" font-size="20.2">Flickr8k mean under replacement backbones and text encoders.</text><line x1="74" x2="806" y1="354" y2="354" stroke="#c5d9e8" stroke-width="1.7"/><text x="58" y="360" fill="#000" font-size="20.2" font-weight="760" text-anchor="end">0</text><line x1="74" x2="806" y1="284" y2="284" stroke="#d6ebf8" stroke-width="1.2"/><text x="58" y="290" fill="#000" font-size="20.2" font-weight="760" text-anchor="end">5</text><line x1="74" x2="806" y1="214" y2="214" stroke="#d6ebf8" stroke-width="1.2"/><text x="58" y="220" fill="#000" font-size="20.2" font-weight="760" text-anchor="end">10</text><line x1="74" x2="806" y1="144" y2="144" stroke="#c5d9e8" stroke-width="1.7"/><text x="58" y="150" fill="#000" font-size="20.2" font-weight="760" text-anchor="end">15</text><path fill="none" stroke="#9fb7d9" stroke-width="1.8" d="M74 144V354H806"/><rect width="62" height="102.2" x="125" y="251.8" fill="#d49a8c" rx="8"/><text x="156" y="239.8" fill="#000" font-size="22.4" font-weight="900" text-anchor="middle">7.3</text><rect width="62" height="96.6" x="205" y="257.4" fill="#76a99a" rx="8"/><text x="236" y="245.4" fill="#000" font-size="22.4" font-weight="900" text-anchor="middle">6.9</text><text x="196" y="390" fill="#000" font-size="22.4" font-weight="900" text-anchor="middle">100</text><rect width="62" height="100.8" x="369" y="253.2" fill="#d49a8c" rx="8"/><text x="400" y="241.2" fill="#000" font-size="22.4" font-weight="900" text-anchor="middle">7.2</text><rect width="62" height="121.8" x="449" y="232.2" fill="#76a99a" rx="8"/><text x="480" y="220.2" fill="#000" font-size="22.4" font-weight="900" text-anchor="middle">8.7</text><text x="440" y="390" fill="#000" font-size="22.4" font-weight="900" text-anchor="middle">200</text><rect width="62" height="121.8" x="613" y="232.2" fill="#d49a8c" rx="8"/><text x="644" y="220.2" fill="#000" font-size="22.4" font-weight="900" text-anchor="middle">8.7</text><rect width="62" height="177.8" x="693" y="176.2" fill="#76a99a" rx="8"/><text x="724" y="164.2" fill="#000" font-size="22.4" font-weight="900" text-anchor="middle">12.7</text><text x="684" y="390" fill="#000" font-size="22.4" font-weight="900" text-anchor="middle">500</text><rect width="246" height="31" x="40" y="106" fill="#fbfdff" stroke="#c5d9e8" opacity=".98" rx="15.5"/><rect width="14" height="14" x="58" y="115" fill="#d49a8c" rx="3"/><text x="82" y="128" fill="#000" font-size="19" font-weight="840">Baseline</text><rect width="14" height="14" x="176" y="115" fill="#76a99a" rx="3"/><text x="200" y="128" fill="#000" font-size="19" font-weight="840">RAHA</text><path stroke="#c5d9e8" stroke-width="2" d="M64 386H804"/><text x="64" y="413" fill="#000" font-size="19">Higher is better. Transfer improves as synthetic image-text capacity grows.</text></svg>