<svg xmlns="http://www.w3.org/2000/svg" viewBox="0 0 1180 712" role="img"><style>text{font-family:Arial, Helvetica, sans-serif;letter-spacing:0}</style><defs><linearGradient id="sphereFill" x1="0" y1="0" x2="1" y2="1"><stop offset="0" stop-color="#ffffff"/><stop offset="1" stop-color="#eef3f8"/></linearGradient><linearGradient id="hyperFill" x1="0" y1="0" x2="0" y2="1"><stop offset="0" stop-color="#eef3f8"/><stop offset="0.52" stop-color="#e7f0e9"/><stop offset="1" stop-color="#ffffff"/></linearGradient><marker id="softArrow" viewBox="0 0 10 10" refX="7" refY="5" markerWidth="6" markerHeight="6" orient="auto-start-reverse"><path d="M 0 0 L 10 5 L 0 10 z" fill="#1d76bb"/></marker></defs><rect width="1180" height="712" rx="30" fill="#ffffff"/><rect x="26" y="26" width="1128" height="660" rx="24" fill="#ffffff" stroke="#c5d9e8"/><text x="590" y="58" text-anchor="middle" font-size="26" font-weight="900" fill="#000000">Transitioning from Euclidean to Hyperbolic</text><g transform="translate(36,112)"><rect x="0" y="0" width="438" height="468" rx="18" fill="#f7f1e8" stroke="#c5d9e8"/><text x="219" y="34" text-anchor="middle" font-size="17" font-weight="900" fill="#000000">Euclidean space</text><text x="219" y="52" text-anchor="middle" font-size="10.5" fill="#000000">fine pairs face each other; generic pair sits between them</text><text x="54" y="78" font-size="10" font-weight="900" fill="#78a99a">image</text><text x="372" y="78" font-size="10" font-weight="900" fill="#9fb7d9">text</text><circle cx="219" cy="244" r="104" fill="url(#sphereFill)" stroke="#c5d9e8" stroke-width="1.8"/><ellipse cx="219" cy="244" rx="104" ry="30" fill="none" stroke="#e1d6ca" stroke-width="1.4"/><ellipse cx="219" cy="244" rx="104" ry="52" fill="none" stroke="#e1d6ca" stroke-width="1.4"/><ellipse cx="219" cy="244" rx="104" ry="74" fill="none" stroke="#e1d6ca" stroke-width="1.4"/><path d="M104.0 182.0L334.0 166.0" fill="none" stroke="#8f8378" stroke-width="1.8" stroke-linecap="round" opacity="0.72"/><rect x="91.0" y="169.0" width="26" height="26" rx="7" fill="#78a99a" stroke="#ffffff" stroke-width="3.5"/><text x="104.0" y="186.0" text-anchor="middle" font-size="13" font-weight="900" fill="#000000">I</text><circle cx="334.0" cy="166.0" r="14" fill="#9fb7d9" stroke="#ffffff" stroke-width="3.5"/><text x="334.0" y="170.0" text-anchor="middle" font-size="13" font-weight="900" fill="#000000">T</text><rect x="166.4" y="146.0" width="105.1" height="20" rx="10" fill="#eef3f8" stroke="#cfdae8"/><text x="219.0" y="160.0" text-anchor="middle" font-size="9.5" font-weight="850" fill="#000000">fine: yellow dog</text><path d="M120.0 316.0L318.0 300.0" fill="none" stroke="#8f8378" stroke-width="1.8" stroke-linecap="round" opacity="0.72"/><rect x="107.0" y="303.0" width="26" height="26" rx="7" fill="#78a99a" stroke="#ffffff" stroke-width="3.5"/><text x="120.0" y="320.0" text-anchor="middle" font-size="13" font-weight="900" fill="#000000">I</text><circle cx="318.0" cy="300.0" r="14" fill="#9fb7d9" stroke="#ffffff" stroke-width="3.5"/><text x="318.0" y="304.0" text-anchor="middle" font-size="13" font-weight="900" fill="#000000">T</text><rect x="169.1" y="334.0" width="99.8" height="20" rx="10" fill="#eef3f8" stroke="#cfdae8"/><text x="219.0" y="348.0" text-anchor="middle" font-size="9.5" font-weight="850" fill="#000000">fine: brown dog</text><path d="M176.0 244.0L262.0 244.0" fill="none" stroke="#8f8378" stroke-width="1.8" stroke-linecap="round" opacity="0.55"/><rect x="163.0" y="231.0" width="26" height="26" rx="7" fill="#f2dfaa" stroke="#ffffff" stroke-width="3.5"/><text x="176.0" y="248.0" text-anchor="middle" font-size="13" font-weight="900" fill="#000000">I</text><circle cx="262.0" cy="244.0" r="14" fill="#f2dfaa" stroke="#ffffff" stroke-width="3.5"/><text x="262.0" y="248.0" text-anchor="middle" font-size="13" font-weight="900" fill="#000000">T</text><rect x="177.1" y="268.0" width="83.8" height="20" rx="10" fill="#f6f0df" stroke="#e6cfc1"/><text x="219.0" y="282.0" text-anchor="middle" font-size="9.5" font-weight="850" fill="#000000">generic: dog</text><rect x="28.0" y="418.0" width="382.0" height="34" rx="12" fill="#f6e7dc" stroke="#e6cfc1"/><text x="219.0" y="432.0" text-anchor="middle" font-size="10.5" font-weight="900" fill="#000000">Flat geometry mixes all directions</text><text x="219.0" y="445.0" text-anchor="middle" font-size="9.8" fill="#000000">each pair uses one direct contrastive link</text></g><g transform="translate(506,170)"><path d="M-26 118H-6" stroke="#1d76bb" stroke-width="2.8" stroke-linecap="round" marker-end="url(#softArrow)"/><path d="M150 118H166" stroke="#1d76bb" stroke-width="2.8" stroke-linecap="round" marker-end="url(#softArrow)"/><rect x="0" y="34" width="144" height="158" rx="18" fill="#ffffff" stroke="#a7d6f3" opacity=".94"/><text x="72" y="58" text-anchor="middle" font-size="10" fill="#000000"><tspan font-weight="950">Match</tspan> <tspan font-weight="950">H</tspan>yperbolically</text><text x="72" y="72" text-anchor="middle" font-size="10" fill="#000000"><tspan font-weight="950">A</tspan>ligned Distributions</text><circle cx="72" cy="108" r="27" fill="#ffffff" stroke="#cbdccd"/><g transform="translate(45,84) scale(0.105)"><path d="M0 0 C0.91120605 0.67579102 0.91120605 0.67579102 1.84082031 1.36523438 C15.9327249 11.88616587 29.75226401 24.03608216 40.8125 37.75 C41.56144531 38.67296875 42.31039063 39.5959375 43.08203125 40.546875 C46.6164622 45.06749137 47.30225345 47.25718447 47 53 C46.74992187 53.60714844 46.49984375 54.21429688 46.2421875 54.83984375 C45.84503006 58.38223193 47.91771953 60.31457042 49.9375 63.125 C54 68.82504288 54 68.82504288 54 71 C55.051875 70.9175 56.10375 70.835 57.1875 70.75 C61.79691927 71.052257 62.77150829 71.76654138 66 75 C67.75665244 77.86294262 69.10311605 80.8587209 70.4375 83.9375 C70.82437988 84.81849365 71.21125977 85.6994873 71.60986328 86.60717773 C75.67577907 96.15540747 78.64389607 105.90213123 81 116 C81.17789062 116.76038574 81.35578125 117.52077148 81.5390625 118.30419922 C88.94314038 151.74742003 83.68605025 187.71857609 68 218 C67.59023926 218.56944336 67.18047852 219.13888672 66.75830078 219.72558594 C64.97666665 222.22615068 63.90257884 224.18443578 64.27270508 227.28295898 C65.03885194 229.9308062 65.96950057 232.44362333 67 235 C67.47614746 236.26142822 67.47614746 236.26142822 67.96191406 237.54833984 C68.99583636 240.26970137 70.06031192 242.97803958 71.125 245.6875 C73.88278894 252.77790409 76.32390189 259.87012073 78.30859375 267.2109375 C78.49836792 267.90478043 78.68814209 268.59862335 78.88366699 269.31349182 C79.81257014 272.72679382 80.70686128 276.1441754 81.55322266 279.57885742 C83.78900055 287.96437137 86.08270969 291.93854939 93 297 C94.54056973 298.42406027 96.05659443 299.87500269 97.55078125 301.34765625 C98.32623291 302.11045898 99.10168457 302.87326172 99.90063477 303.65917969 C108.27796986 312.00683498 116.14797231 320.35324724 123 330 C123.43103027 330.59731934 123.86206055 331.19463867 124.30615234 331.81005859 C133.41355969 344.5270072 142.54542512 357.63655277 140 374 C137.83695688 381.76418637 133.50038268 387.73765038 126.5 391.8125 C120.33916092 395.16408323 113.54706218 396.04813637 106.6953125 394.46875 C98.96618738 392.07454289 93.91035159 388.35457265 89 382 C88.443125 382.70125 87.88625 383.4025 87.3125 384.125 C86.549375 385.07375 85.78625 386.0225 85 387 C84.29875 387.99 83.5975 388.98 82.875 390 C78.81693056 394.89243886 72.1524186 397.76951628 66 399 C58.00849942 399.70100882 50.09704127 397.67075303 43.625 392.75 C38.62207242 387.50883778 34.85312334 381.96774394 34.90234375 374.55126953 C34.90729858 373.2030864 34.90729858 373.2030864 34.91235352 371.82766724 C34.92065186 370.85586517 34.9289502 369.88406311 34.9375 368.8828125 C34.94317993 367.37060623 34.94317993 367.37060623 34.94897461 365.82785034 C34.96527346 361.5173439 34.99312747 357.20693256 35.02050781 352.89648438 C35.97109312 335.79152654 35.97109312 335.79152654 34 319 C32.25166576 317.80225224 32.25166576 317.80225224 30 317 C28.24984023 315.86512538 26.51691446 314.70346457 24.796875 313.5234375 C23.8171875 312.853125 22.8375 312.1828125 21.828125 311.4921875 C20.81234375 310.79351562 19.7965625 310.09484375 18.75 309.375 C17.71875 308.66859375 16.6875 307.9621875 15.625 307.234375 C13.08179493 305.49180856 10.54020022 303.74694249 8 302 C5.08346577 303.70869546 2.30026893 305.43995253 -0.35546875 307.53125 C-46.26518371 343.13420982 -101.68679444 360.0650797 -159.5925293 353.48071289 C-211.55540579 346.88925061 -258.37594778 321.32164391 -298 288 C-299.30517578 286.96746094 -299.30517578 286.96746094 -300.63671875 285.9140625 C-306.72773327 280.92268168 -306.72773327 280.92268168 -308.125 276.1875 C-308 273 -308 273 -307 270 C-313.31229816 262.72469969 -313.31229816 262.72469969 -321.51953125 258.515625 C-322.99035766 258.67017769 -324.4593971 258.84297305 -325.92578125 259.03515625 C-329.55838846 258.97358664 -331.42247587 256.69537102 -333.90625 254.24609375 C-334.5971875 253.50488281 -335.288125 252.76367188 -336 252 C-336.7940625 251.16597656 -337.588125 250.33195312 -338.40625 249.47265625 C-343.34333259 244.16224488 -348.03539995 238.66825558 -352.5703125 233.01171875 C-354.37232866 230.7780299 -356.19708401 228.58092941 -358.0546875 226.39453125 C-368.52173324 213.95151463 -373.53470688 203.55537949 -372.23925781 187.0546875 C-371.13477004 177.56961699 -366.26550576 169.18165457 -358.80102539 163.25366211 C-352.92041331 159.16131336 -346.93317883 155.58591331 -340.5625 152.3125 C-339.57733398 151.80412598 -338.59216797 151.29575195 -337.57714844 150.77197266 C-298.18698367 130.71935826 -255.67752561 115.32240871 -212 108 C-212 104.20358669 -212.46021546 102.24810796 -213.72265625 98.7578125 C-214.09293945 97.70754883 -214.46322266 96.65728516 -214.84472656 95.57519531 C-215.2465918 94.43663086 -215.64845703 93.29806641 -216.0625 92.125 C-227.34281889 59.10313515 -249.75375438 -13.29150527 -233 -48 C-228.09633507 -57.86321208 -221.00605182 -64.8061258 -210.6875 -68.9375 C-148.81913874 -86.76397697 -46.67883783 -34.87197798 0 0 Z " fill="#010200" transform="translate(372,92)"/>
<path d="M0 0 C1.43416008 -0.00855011 1.43416008 -0.00855011 2.89729309 -0.01727295 C4.91678786 -0.0266721 6.93629762 -0.03323656 8.95581055 -0.03710938 C11.96627626 -0.04670525 14.97602527 -0.07773184 17.98632812 -0.109375 C30.70675869 -0.17789726 42.95497431 0.81065162 55.51318359 2.83087158 C57.73548059 3.18762536 59.96003776 3.52082199 62.18701172 3.84692383 C90.50524233 8.14464085 118.09176475 21.86415826 139.83203125 40.203125 C140.63125 40.86699219 141.43046875 41.53085938 142.25390625 42.21484375 C161.97789724 59.20637102 175.27408288 81.54478764 182.76953125 106.328125 C182.9814209 107.02687744 183.19331055 107.72562988 183.41162109 108.44555664 C184.55324985 112.46266892 185.04640449 116.03259105 184.83203125 120.203125 C182.90300491 119.28937568 180.97401294 118.37555377 179.04516602 117.46142578 C177.3313774 116.6500061 175.61700161 115.83982564 173.90209961 115.03076172 C169.69538103 113.04416018 165.49641091 111.04652558 161.32421875 108.98828125 C142.57693906 99.79778534 123.04587681 92.46875152 103.26953125 85.828125 C102.10703857 85.43568604 100.9445459 85.04324707 99.74682617 84.63891602 C83.74108941 79.36653047 67.40750535 75.45177131 50.89453125 72.140625 C50.04894653 71.96981415 49.20336182 71.7990033 48.33215332 71.62301636 C30.99330065 68.15269754 13.58559134 65.9262429 -4.0249176 64.39233398 C-5.63139369 64.25049896 -7.23702029 64.09898619 -8.84214783 63.94262695 C-16.43521633 63.23993336 -23.95531036 63.05711305 -31.578125 63.0703125 C-32.82565048 63.06935577 -34.07317596 63.06839905 -35.35850525 63.06741333 C-37.98469086 63.06673676 -40.6108782 63.06855434 -43.23706055 63.07275391 C-47.19518932 63.07807755 -51.15320297 63.0728074 -55.11132812 63.06640625 C-66.11215547 63.06243081 -77.11067377 63.07331316 -88.1015625 63.5859375 C-89.20045555 63.6314827 -89.20045555 63.6314827 -90.32154846 63.677948 C-95.64486295 63.97657402 -101.2658367 64.30099295 -105.16796875 68.203125 C-105.41050688 70.41385477 -105.41050688 70.41385477 -105.29296875 72.828125 C-105.27492188 73.64539063 -105.256875 74.46265625 -105.23828125 75.3046875 C-105.21507813 75.93117188 -105.191875 76.55765625 -105.16796875 77.203125 C-96.73778994 79.3047991 -88.30408032 81.21002497 -79.75463867 82.7644043 C-53.18290516 87.61721871 -26.60422936 93.95341204 -0.91430664 102.31860352 C1.82421111 103.20060634 4.57063502 104.05493558 7.31915283 104.90518188 C44.36594398 116.3833424 80.57035174 130.03817511 115.83203125 146.203125 C116.81840576 146.65522339 116.81840576 146.65522339 117.82470703 147.11645508 C122.27724436 149.15989753 126.72303618 151.21740157 131.16305542 153.28790283 C132.61696246 153.96565444 134.07161884 154.64180159 135.52713013 155.31610107 C145.9172904 160.13882615 155.91930046 165.46369611 165.83203125 171.203125 C165.83203125 174.203125 165.83203125 174.203125 164.51293945 175.54663086 C163.89249756 175.99917236 163.27205566 176.45171387 162.6328125 176.91796875 C161.92922607 177.43327148 161.22563965 177.94857422 160.50073242 178.47949219 C159.72318604 179.02766602 158.94563965 179.57583984 158.14453125 180.140625 C157.33798096 180.71329102 156.53143066 181.28595703 155.70043945 181.87597656 C122.16738011 205.25305233 83.39445559 219.46045267 42.39453125 219.390625 C41.63303772 219.38935608 40.87154419 219.38808716 40.0869751 219.38677979 C-5.16292725 219.2427893 -47.99443432 203.81781495 -85.16796875 178.203125 C-85.80186523 177.7704834 -86.43576172 177.3378418 -87.08886719 176.89208984 C-97.10452518 170.02051426 -106.82764581 162.62667151 -116.05859375 154.73046875 C-116.9196875 153.99957031 -117.78078125 153.26867187 -118.66796875 152.515625 C-119.40015625 151.87238281 -120.13234375 151.22914063 -120.88671875 150.56640625 C-123.84722771 148.79719798 -125.76745729 148.89439435 -129.16796875 149.203125 C-129.82249023 149.42581055 -130.47701172 149.64849609 -131.15136719 149.87792969 C-133.16796875 150.203125 -133.16796875 150.203125 -134.81542969 149.21508789 C-135.60095215 148.4531311 -135.60095215 148.4531311 -136.40234375 147.67578125 C-136.97597656 147.13115234 -137.54960937 146.58652344 -138.140625 146.02539062 C-139.02041016 145.15430664 -139.02041016 145.15430664 -139.91796875 144.265625 C-140.51996094 143.68876953 -141.12195313 143.11191406 -141.7421875 142.51757812 C-143.22819732 141.09053695 -144.69952041 139.64823095 -146.16796875 138.203125 C-146.01320068 137.61047852 -145.85843262 137.01783203 -145.69897461 136.40722656 C-144.8877625 133.04004362 -144.70641748 130.67747941 -145.16796875 127.203125 C-147.1357762 124.27153999 -149.58140351 121.90843905 -152.10546875 119.453125 C-153.49726409 118.03627864 -154.88659401 116.61700621 -156.2734375 115.1953125 C-156.94810059 114.51049805 -157.62276367 113.82568359 -158.31787109 113.12011719 C-162.23615415 109.0601596 -165.68205795 104.63184441 -169.16796875 100.203125 C-170.12771529 99.02246838 -171.08873056 97.84284236 -172.05078125 96.6640625 C-173.04870286 95.42750746 -174.04610453 94.19053262 -175.04296875 92.953125 C-175.50799805 92.3864209 -175.97302734 91.8197168 -176.45214844 91.23583984 C-181.43555151 84.98011738 -183.84188138 79.16597463 -183.57421875 71.046875 C-182.61858169 64.35741556 -179.91131419 59.39742992 -174.60546875 55.25390625 C-170.01631517 51.96483902 -165.17973933 49.28895456 -160.16796875 46.703125 C-159.18594482 46.19539551 -158.2039209 45.68766602 -157.19213867 45.16455078 C-128.16725564 30.41841636 -97.69016761 18.39271588 -66.16796875 10.203125 C-65.33845703 9.98317871 -64.50894531 9.76323242 -63.65429688 9.53662109 C-49.00527565 5.68800584 -34.18213804 3.16273871 -19.16796875 1.203125 C-18.50520432 1.11577087 -17.84243988 1.02841675 -17.15959167 0.93841553 C-11.42840639 0.23530506 -5.77093042 0.02753453 0 0 Z " fill="#6CC746" transform="translate(198.16796875,211.796875)"/>
<path d="M0 0 C1.51478675 0.27848965 3.02968043 0.5563983 4.54467773 0.83374023 C17.54882623 3.23320723 30.46451431 5.7586849 43.15234375 9.51953125 C43.88332275 9.73576141 44.61430176 9.95199158 45.36743164 10.17477417 C103.26879445 27.42973266 162.67128793 53.12605198 201.20703125 101.76953125 C204.01963025 105.21685812 204.01963025 105.21685812 207.25 108.25 C209.35808788 108.32358257 209.35808788 108.32358257 211.5 107.8125 C213.86328125 107.68359375 213.86328125 107.68359375 216.25 108.25 C221.23110406 113.07836151 224.29702262 118.63539318 226.25 125.25 C225.755 125.62125 225.26 125.9925 224.75 126.375 C222.56758684 129.10301645 222.94257172 130.79952211 223.25 134.25 C224.24998098 136.75276138 225.28079195 139.05095195 226.5 141.4375 C227.15025647 142.77583181 227.79738573 144.11568748 228.44140625 145.45703125 C228.75480957 146.10752441 229.06821289 146.75801758 229.39111328 147.42822266 C233.85563069 156.89787271 236.12533659 167.05095955 238.25 177.25 C238.43167725 178.09361084 238.61335449 178.93722168 238.80053711 179.80639648 C243.90194638 205.17685892 240.29340649 238.03864197 226.25 260.25 C223.05522373 258.65261187 222.17652041 255.35651101 220.6875 252.25 C219.95966658 250.77017684 219.23045663 249.29103007 218.5 247.8125 C217.93732422 246.66974609 217.93732422 246.66974609 217.36328125 245.50390625 C204.46434129 219.38921026 188.35664631 195.03771825 170.25 172.25 C169.7432373 171.61175293 169.23647461 170.97350586 168.71435547 170.31591797 C162.58479824 162.62403296 156.3678539 155.07624589 149.6640625 147.875 C147.80310191 145.85143121 146.01188124 143.80322251 144.2265625 141.71484375 C139.59581555 136.40709428 134.62363424 131.43759042 129.64501953 126.4597168 C128.01172552 124.82424118 126.3866153 123.18092292 124.76171875 121.53710938 C118.99505363 115.74029719 113.14448028 110.31158907 106.71459961 105.24707031 C104.04862829 103.08682808 101.55763608 100.79197402 99.0625 98.4375 C92.83276113 92.71287509 86.11113005 87.73409276 79.28759766 82.74365234 C77.32346945 81.30385647 75.36941944 79.85144657 73.41796875 78.39453125 C64.88922942 72.04611299 56.21403448 65.96899703 47.25 60.25 C46.42145508 59.72100098 45.59291016 59.19200195 44.73925781 58.64697266 C42.06637356 56.95453717 39.37978384 55.28637381 36.6875 53.625 C35.84227783 53.09140869 34.99705566 52.55781738 34.1262207 52.00805664 C28.15037217 48.36782901 28.15037217 48.36782901 21.25 48.25 C19.25 49.25 19.25 49.25 18.25 51.25 C17.84170492 54.89403363 17.93207272 56.73087237 19.8671875 59.890625 C20.61226563 60.75171875 21.35734375 61.6128125 22.125 62.5 C22.94484375 63.45003906 23.7646875 64.40007812 24.609375 65.37890625 C27.94649621 69.00728508 31.4056115 72.4874102 34.92578125 75.9375 C38.22625646 79.22133416 41.22892118 82.71085564 44.25 86.25 C45.22687148 87.37586245 46.20483841 88.50077487 47.18359375 89.625 C58.18627291 102.26595483 69.01833051 114.97345049 79.25 128.25 C79.85505371 129.03439453 80.46010742 129.81878906 81.08349609 130.62695312 C89.88829258 142.06243763 98.52943194 153.59974701 106.90039062 165.35693359 C108.13050331 167.08238471 109.36852142 168.8017985 110.609375 170.51953125 C111.25390625 171.42058594 111.8984375 172.32164062 112.5625 173.25 C113.36107422 174.36375 113.36107422 174.36375 114.17578125 175.5 C115.25 177.25 115.25 177.25 115.25 179.25 C110.30796813 177.72246288 105.59414278 175.97979942 100.85961914 173.89013672 C93.03308981 170.48697322 85.0970642 167.845194 76.875 165.5625 C75.92826416 165.28954102 74.98152832 165.01658203 74.00610352 164.73535156 C51.28148475 158.6627562 28.45686682 157.69292268 5.0625 158 C2.34312255 158.02249845 -0.37628084 158.03865579 -3.09570312 158.0546875 C-9.64746677 158.09801034 -16.19866007 158.16432284 -22.75 158.25 C-26.54387309 149.31149227 -29.85509701 140.38779785 -32.75 131.125 C-32.9672171 130.43390137 -33.1844342 129.74280273 -33.40823364 129.03076172 C-37.3256333 116.47895754 -40.13063298 103.89248009 -42.29150391 90.91650391 C-42.68417845 88.63280244 -43.12169571 86.37120533 -43.60546875 84.10546875 C-47.54135048 65.34509846 -49.00158477 46.07842315 -49.25 26.9375 C-49.28053467 25.68694824 -49.31106934 24.43639648 -49.3425293 23.14794922 C-49.34550998 14.42170803 -47.68910339 9.65703144 -41.94140625 3.2265625 C-41.13509766 2.55753906 -41.13509766 2.55753906 -40.3125 1.875 C-39.77753906 1.41351563 -39.24257812 0.95203125 -38.69140625 0.4765625 C-27.58210573 -6.54219075 -12.09866129 -2.29018379 0 0 Z " fill="#8CD36F" transform="translate(200.75,39.75)"/>
<path d="M0 0 C0.96593079 -0.00794586 1.93186157 -0.01589172 2.92706299 -0.02407837 C16.34441134 -0.10878565 29.28865585 0.90128535 42.54104614 3.00476074 C44.7698639 3.35832207 47.00080916 3.69121478 49.23364258 4.01831055 C77.55220813 8.32433979 105.13253773 22.03418102 126.875 40.375 C127.67421875 41.03886719 128.4734375 41.70273438 129.296875 42.38671875 C149.02086599 59.37824602 162.31705163 81.71666264 169.8125 106.5 C170.13033447 107.54812866 170.13033447 107.54812866 170.45458984 108.61743164 C171.5962186 112.63454392 172.08937324 116.20446605 171.875 120.375 C169.94597366 119.46125068 168.01698169 118.54742877 166.08813477 117.63330078 C164.37434615 116.8218811 162.65997036 116.01170064 160.94506836 115.20263672 C156.73834978 113.21603518 152.53937966 111.21840058 148.3671875 109.16015625 C129.61990781 99.96966034 110.08884556 92.64062652 90.3125 86 C89.15000732 85.60756104 87.98751465 85.21512207 86.78979492 84.81079102 C70.78469899 79.53861656 54.45071341 75.62000365 37.9375 72.3125 C37.08693024 72.14135681 36.23636047 71.97021362 35.36001587 71.79388428 C17.29792448 68.19515115 -0.78854817 65.97491888 -19.125 64.375 C-20.97834961 64.20943604 -20.97834961 64.20943604 -22.86914062 64.04052734 C-39.59794822 62.58055032 -56.34244827 61.86666461 -73.125 61.375 C-75.96562613 52.2849964 -76.3295893 43.53630819 -76.375 34.0625 C-76.395625 32.99837891 -76.41625 31.93425781 -76.4375 30.83789062 C-76.47242672 23.6822786 -75.74917379 17.08671218 -73.125 10.375 C-70.80207009 8.05207009 -69.6853439 7.8667972 -66.5234375 7.19140625 C-65.57259277 6.98733154 -64.62174805 6.78325684 -63.64208984 6.57299805 C-58.14434734 5.46106147 -52.64113533 4.39191344 -47.125 3.375 C-46.22007812 3.20258789 -45.31515625 3.03017578 -44.3828125 2.85253906 C-29.67010608 0.16378078 -14.90932563 0.06419081 0 0 Z " fill="#8CD26F" transform="translate(211.125,211.625)"/>
<path d="M0 0 C16.35345959 2.68436918 32.0752349 7.06730979 47.86694336 12.01879883 C50.12669486 12.72650095 52.38814142 13.42879858 54.65063477 14.12768555 C92.32303915 25.77775042 129.1460214 39.56352348 165 56 C165.65758301 56.30139893 166.31516602 56.60279785 166.99267578 56.91333008 C171.44521311 58.95677253 175.89100493 61.01427657 180.33102417 63.08477783 C181.78493121 63.76252944 183.23958759 64.43867659 184.69509888 65.11297607 C195.08525915 69.93570115 205.08726921 75.26057111 215 81 C215 84 215 84 213.6809082 85.34350586 C213.06046631 85.79604736 212.44002441 86.24858887 211.80078125 86.71484375 C211.09638916 87.23046875 210.39199707 87.74609375 209.66625977 88.27734375 C208.50114868 89.09912109 208.50114868 89.09912109 207.3125 89.9375 C206.51320068 90.50726563 205.71390137 91.07703125 204.89038086 91.6640625 C170.56188276 115.66454038 170.56188276 115.66454038 156.46875 113.703125 C111.7258434 104.63361691 67.61362448 83.37355821 36 50 C35.20207031 49.20207031 34.40414062 48.40414062 33.58203125 47.58203125 C19.69066853 33.69066853 9.0758216 18.41213182 0 1 C0 0.67 0 0.34 0 0 Z " fill="#8CD36F" transform="translate(149,302)"/>
<path d="M0 0 C12.31711349 -0.21864698 24.29182914 0.04564283 36.50537109 1.67480469 C39.2992117 2.0390047 42.09606177 2.3686219 44.89453125 2.6953125 C55.58844873 3.95763662 66.17175313 5.3793568 76.72460938 7.54345703 C79.41114697 8.08249408 82.10355137 8.58582235 84.796875 9.08984375 C98.45242648 11.67759034 111.74694273 14.81559138 125 19 C126.22251465 19.38430176 127.4450293 19.76860352 128.70458984 20.16455078 C147.57645682 26.13156828 165.96885778 32.78597062 184 41 C185.04591309 41.47550293 186.09182617 41.95100586 187.16943359 42.44091797 C242.09361055 67.63449063 298.17178701 104.34900719 330 157 C330.56332031 157.92039062 331.12664062 158.84078125 331.70703125 159.7890625 C334.44865389 164.66809343 335.74295048 168.42277161 334.72265625 174.01953125 C333.31488183 177.87759413 330.59632864 180.20183568 327 182 C325.01171875 182.23828125 325.01171875 182.23828125 322.6875 182.3125 C321.54861328 182.36857422 321.54861328 182.36857422 320.38671875 182.42578125 C316.9883482 181.81952529 315.4578707 180.39859729 313 178 C311.18359375 175.109375 311.18359375 175.109375 309.4375 171.75 C301.94412586 157.99086633 291.86832327 146.19584115 281 135 C280.14535156 134.10539063 279.29070312 133.21078125 278.41015625 132.2890625 C272.63713647 126.36100111 266.51140787 121.09764065 260 116 C259.09749512 115.28287842 259.09749512 115.28287842 258.17675781 114.55126953 C206.86829092 73.84107134 144.25349071 47.89675206 83 26 C81.82739624 25.58013824 81.82739624 25.58013824 80.63110352 25.15179443 C60.10396218 17.81477778 39.59501211 11.15747995 18.43798828 5.87060547 C12.2753738 4.31003998 6.13896044 2.65084433 0 1 C0 0.67 0 0.34 0 0 Z " fill="#6BC546" transform="translate(162,289)"/>
<path d="M0 0 C5.13779374 3.33751081 10.02826617 6.96215453 14.9375 10.625 C23.12891187 16.68821252 31.41185331 22.51381011 40 28 C40.75410156 28.48259277 41.50820312 28.96518555 42.28515625 29.46240234 C70.70422801 47.55504173 100.5347039 63.49059821 131.375 77.0625 C132.33164551 77.4862793 133.28829102 77.91005859 134.27392578 78.34667969 C135.14001465 78.71825195 136.00610352 79.08982422 136.8984375 79.47265625 C137.64786621 79.79500244 138.39729492 80.11734863 139.16943359 80.44946289 C141.07192868 81.24981207 141.07192868 81.24981207 143 80 C143.40839111 80.58491211 143.81678223 81.16982422 144.23754883 81.77246094 C146.0951553 84.43213774 147.95381666 87.09107566 149.8125 89.75 C150.45509766 90.67039062 151.09769531 91.59078125 151.75976562 92.5390625 C152.69272461 93.87324219 152.69272461 93.87324219 153.64453125 95.234375 C154.21534424 96.05131836 154.78615723 96.86826172 155.37426758 97.70996094 C156.44935355 99.22434844 157.56127252 100.71331222 158.7097168 102.17285156 C160 104 160 104 160 106 C155.05796813 104.47246288 150.34414278 102.72979942 145.60961914 100.64013672 C137.78308981 97.23697322 129.8470642 94.595194 121.625 92.3125 C120.67826416 92.03954102 119.73152832 91.76658203 118.75610352 91.48535156 C96.03148475 85.4127562 73.20686682 84.44292268 49.8125 84.75 C47.09312255 84.77249845 44.37371916 84.78865579 41.65429688 84.8046875 C35.10253323 84.84801034 28.55133993 84.91432284 22 85 C18.20609446 76.06141582 14.89555813 67.13763503 12 57.875 C11.78311523 57.18556305 11.56623047 56.4961261 11.34277344 55.78579712 C7.43855181 43.28880201 4.60121754 30.73960854 2.47265625 17.81396484 C1.83088478 13.99317044 1.10071806 10.19011814 0.3671875 6.38598633 C0 4 0 4 0 0 Z " fill="#6CC646" transform="translate(156,113)"/>
<path d="M0 0 C3.91711577 1.65179581 6.89130559 4.30389882 10.0625 7.0625 C11.23489362 8.0712238 12.4080816 9.07902503 13.58203125 10.0859375 C14.16291504 10.58448242 14.74379883 11.08302734 15.34228516 11.59667969 C17.60441454 13.51166049 19.92813879 15.34565603 22.25 17.1875 C33.69882887 26.53213022 44.1622982 37.08280234 54.625 47.5 C55.35855713 48.22888428 56.09211426 48.95776855 56.84790039 49.70874023 C61.43643409 54.31095691 65.76266738 59.07485391 70 64 C71.03333233 65.16828245 72.06844277 66.33499498 73.10546875 67.5 C80.33098579 75.67740239 87.05738408 84.10544698 93.48193359 92.92431641 C95.01184089 95.0161903 96.56101887 97.09264568 98.11328125 99.16796875 C122.93767131 132.61151513 142.5508342 169.9858103 157 209 C157.32291016 209.85255371 157.64582031 210.70510742 157.97851562 211.58349609 C158.87366055 213.94691962 159.75282596 216.31551748 160.625 218.6875 C161.01534424 219.72100586 161.01534424 219.72100586 161.41357422 220.77539062 C162.62862294 224.17304285 163.43910111 226.57563291 162 230 C161.22140625 229.42894531 160.4428125 228.85789062 159.640625 228.26953125 C159.11130371 227.88635742 158.58198242 227.50318359 158.03662109 227.10839844 C156.82096426 226.22664024 155.61051535 225.33766699 154.40478516 224.44238281 C150.6492978 221.70723677 146.88459211 219.35490596 142.7578125 217.21484375 C129.50710458 210.09267825 129.50710458 210.09267825 126.81835938 204.57519531 C125.20460034 199.07411546 124.78035957 193.45040571 124.31054688 187.75732422 C121.12693088 159.49021802 101.84616039 130.82733268 81.5 111.8125 C75.72223608 106.15749311 71.94605956 99.75731786 67.87890625 92.81640625 C63.03495845 84.58587802 57.46779033 76.82294261 52 69 C51.48791992 68.26362305 50.97583984 67.52724609 50.44824219 66.76855469 C43.19150817 56.33845789 35.69183528 46.11279285 28 36 C27.36263916 35.15791992 27.36263916 35.15791992 26.71240234 34.29882812 C21.14722409 26.94917535 15.41721862 19.7549948 9.55297852 12.64257812 C6.18667557 8.54092535 3.04019447 4.34955733 0 0 Z " fill="#4CAF28" transform="translate(272,135)"/>
<path d="M0 0 C1.29808594 0.2165625 2.59617187 0.433125 3.93359375 0.65625 C14.37036357 2.29504947 24.61464554 3.2997376 35.1875 3.3125 C36.20062256 3.31765625 37.21374512 3.3228125 38.25756836 3.328125 C44.21223675 3.27335594 49.78989258 2.65411062 55.6184082 1.42651367 C58 1 58 1 62 1 C69.24295939 25.06624753 62.318938 53.4578256 53 76 C52.0310942 77.68493303 51.03869832 79.35717208 50 81 C46.80522373 79.40261187 45.92652041 76.10651101 44.4375 73 C43.70966658 71.52017684 42.98045663 70.04103007 42.25 68.5625 C41.87488281 67.80066406 41.49976563 67.03882813 41.11328125 66.25390625 C30.93338702 45.6440853 18.69766485 26.30436902 5.21337891 7.70214844 C3.4121319 5.17532869 1.70367265 2.59341269 0 0 Z " fill="#6BC546" transform="translate(377,219)"/>
<path d="M0 0 C2.80646425 1.27913934 4.85438515 2.60555901 7.0234375 4.79296875 C7.56718018 5.33703369 8.11092285 5.88109863 8.67114258 6.44165039 C10.95465318 8.78143895 13.23609007 11.12299491 15.50439453 13.47753906 C16.69296415 14.68745094 17.93064903 15.84907157 19.18359375 16.9921875 C22.69631998 20.37855667 23.38875439 22.92280208 23.5625 27.8125 C23.16396672 34.87096721 22.52973301 41.52909799 17.3125 46.625 C12.29648375 48.70711995 8.36685374 48.94674149 3.1875 46.875 C-0.02886013 44.11811989 -1.74525091 41.32053262 -2.21484375 37.04296875 C-2.26697024 34.01384056 -2.04191988 31.2342447 -1.50708008 28.24560547 C-1.01812414 25.11600497 -0.79773993 22.10879236 -0.68359375 18.9453125 C-0.64169922 17.83671875 -0.59980469 16.728125 -0.55664062 15.5859375 C-0.51732422 14.44382812 -0.47800781 13.30171875 -0.4375 12.125 C-0.39431641 10.9596875 -0.35113281 9.794375 -0.30664062 8.59375 C-0.20098371 5.72927375 -0.09888201 2.86471679 0 0 Z " fill="#4CAF28" transform="translate(424,427)"/>
<path d="M0 0 C3.91711577 1.65179581 6.89130559 4.30389882 10.0625 7.0625 C11.23489362 8.0712238 12.4080816 9.07902503 13.58203125 10.0859375 C14.16291504 10.58448242 14.74379883 11.08302734 15.34228516 11.59667969 C17.60441454 13.51166049 19.92813879 15.34565603 22.25 17.1875 C29.45455705 23.06021026 36.14396119 29.49065742 42.84130859 35.92919922 C44.27125726 37.30092786 45.70643228 38.66723067 47.14697266 40.02783203 C49.15221854 41.92258573 51.14057343 43.83348253 53.125 45.75 C53.73512939 46.32194092 54.34525879 46.89388184 54.97387695 47.4831543 C56.6328125 49.109375 56.6328125 49.109375 59 52 C58.64794922 54.18066406 58.64794922 54.18066406 58 56 C55.89590361 56.02701408 53.79170822 56.04640223 51.6875 56.0625 C50.51574219 56.07410156 49.34398437 56.08570313 48.13671875 56.09765625 C45 56 45 56 42 55 C40.640625 53.45629883 40.640625 53.45629883 39.25 51.45703125 C38.72986328 50.7201709 38.20972656 49.98331055 37.67382812 49.22412109 C37.12146484 48.42828613 36.56910156 47.63245117 36 46.8125 C34.82514813 45.15336554 33.6480367 43.49582894 32.46875 41.83984375 C31.88222656 41.01597168 31.29570312 40.19209961 30.69140625 39.34326172 C25.60318284 32.29407461 20.09188163 25.56149694 14.6015625 18.82421875 C14.02341797 18.11475098 13.44527344 17.4052832 12.84960938 16.67431641 C11.73637716 15.31114276 10.62066698 13.94998724 9.50195312 12.59130859 C6.15485632 8.50612864 3.02701539 4.32829692 0 0 Z " fill="#69C144" transform="translate(272,135)"/>
<path d="M0 0 C12.31158827 -0.2185489 24.28374719 0.04348029 36.4921875 1.67041016 C39.32597775 2.0428417 42.16245161 2.38786703 45 2.73046875 C55.36022737 3.98824967 65.70304115 5.29054394 76 7 C74.68 7.33 73.36 7.66 72 8 C72 12.29 72 16.58 72 21 C66.26852351 19.80803113 60.82696726 18.34573749 55.3125 16.375 C43.32572504 12.234233 31.02448286 9.17674463 18.76025391 5.98339844 C12.50042774 4.34630067 6.25038556 2.67273961 0 1 C0 0.67 0 0.34 0 0 Z " fill="#4AAA27" transform="translate(162,289)"/></g><text x="72" y="142" text-anchor="middle" font-size="10" font-weight="950" fill="#000000">MATCHA</text><rect x="30.0" y="152.0" width="84.1" height="18" rx="10" fill="#eef3f8" stroke="#cfdae8"/><text x="72.0" y="166.0" text-anchor="middle" font-size="8.8" font-weight="850" fill="#000000">Lorentz model</text></g><g transform="translate(674,112)"><rect x="0" y="0" width="470" height="468" rx="18" fill="#f7f1e8" stroke="#c5d9e8"/><text x="235" y="34" text-anchor="middle" font-size="17" font-weight="900" fill="#000000">Hyperbolic space</text><text x="235" y="52" text-anchor="middle" font-size="10.5" fill="#000000">generic pair at nadir; fine pairs higher on opposite flanks</text><path d="M136 104C158 140 176 182 192 226C205 264 216 300 235 338C254 300 265 264 278 226C294 182 312 140 334 104" fill="url(#hyperFill)" stroke="#c5d9e8" stroke-width="1.8" opacity=".84"/><ellipse cx="235" cy="116" rx="92" ry="20" fill="none" stroke="#d9cec1" stroke-width="1.4"/><ellipse cx="235" cy="156" rx="74" ry="16" fill="none" stroke="#d9cec1" stroke-width="1.4"/><ellipse cx="235" cy="196" rx="56" ry="12" fill="none" stroke="#d9cec1" stroke-width="1.4"/><ellipse cx="235" cy="236" rx="38" ry="9" fill="none" stroke="#d9cec1" stroke-width="1.4"/><ellipse cx="235" cy="282" rx="22" ry="6" fill="none" stroke="#d9cec1" stroke-width="1.4"/><ellipse cx="235" cy="326" rx="9" ry="3.5" fill="none" stroke="#d9cec1" stroke-width="1.4"/><path d="M235 338C222 292 210 246 196 202C186 170 174 144 158 120" fill="none" stroke="#e5dad0" stroke-width="1.6"/><path d="M235 338C248 292 262 246 276 202C286 170 298 144 314 120" fill="none" stroke="#e5dad0" stroke-width="1.6"/><text x="148" y="78" font-size="10" font-weight="900" fill="#78a99a">image flank</text><text x="318" y="78" font-size="10" font-weight="900" fill="#9fb7d9">text flank</text><path d="M214.0 338.0L256.0 338.0" fill="none" stroke="#8f8378" stroke-width="1.8" stroke-linecap="round" opacity="0.58"/><rect x="201.0" y="325.0" width="26" height="26" rx="7" fill="#f2dfaa" stroke="#ffffff" stroke-width="3.5"/><text x="214.0" y="342.0" text-anchor="middle" font-size="13" font-weight="900" fill="#000000">I</text><circle cx="256.0" cy="338.0" r="14" fill="#f2dfaa" stroke="#ffffff" stroke-width="3.5"/><text x="256.0" y="342.0" text-anchor="middle" font-size="13" font-weight="900" fill="#000000">T</text><rect x="193.1" y="368.0" width="83.8" height="20" rx="10" fill="#f6f0df" stroke="#e6cfc1"/><text x="235.0" y="382.0" text-anchor="middle" font-size="9.5" font-weight="850" fill="#000000">generic: dog</text><path d="M164.0 228.0L306.0 200.0" fill="none" stroke="#8f8378" stroke-width="1.8" stroke-linecap="round" opacity="0.78"/><rect x="151.0" y="215.0" width="26" height="26" rx="7" fill="#78a99a" stroke="#ffffff" stroke-width="3.5"/><text x="164.0" y="232.0" text-anchor="middle" font-size="13" font-weight="900" fill="#000000">I</text><circle cx="306.0" cy="200.0" r="14" fill="#9fb7d9" stroke="#ffffff" stroke-width="3.5"/><text x="306.0" y="204.0" text-anchor="middle" font-size="13" font-weight="900" fill="#000000">T</text><rect x="182.4" y="186.0" width="105.1" height="20" rx="10" fill="#eef3f8" stroke="#cfdae8"/><text x="235.0" y="200.0" text-anchor="middle" font-size="9.5" font-weight="850" fill="#000000">fine: yellow dog</text><path d="M148.0 168.0L322.0 140.0" fill="none" stroke="#8f8378" stroke-width="1.8" stroke-linecap="round" opacity="0.78"/><rect x="135.0" y="155.0" width="26" height="26" rx="7" fill="#78a99a" stroke="#ffffff" stroke-width="3.5"/><text x="148.0" y="172.0" text-anchor="middle" font-size="13" font-weight="900" fill="#000000">I</text><circle cx="322.0" cy="140.0" r="14" fill="#9fb7d9" stroke="#ffffff" stroke-width="3.5"/><text x="322.0" y="144.0" text-anchor="middle" font-size="13" font-weight="900" fill="#000000">T</text><rect x="185.1" y="146.0" width="99.8" height="20" rx="10" fill="#eef3f8" stroke="#cfdae8"/><text x="235.0" y="160.0" text-anchor="middle" font-size="9.5" font-weight="850" fill="#000000">fine: brown dog</text><path d="M164.0 228.0L252.0 210.6" fill="none" stroke="#76a99a" stroke-width="4.4" stroke-linecap="round"/><path d="M252.0 210.6L306.0 200.0" fill="none" stroke="#d49a8c" stroke-width="2.8" stroke-linecap="round" stroke-dasharray="6 5"/><rect x="300.0" y="248.0" width="158.0" height="48" rx="12" fill="#ffffff" stroke="#c5d9e8" opacity=".98"/><text x="379.0" y="263.0" text-anchor="middle" font-size="10.5" font-weight="900" fill="#000000">cross-covariance split</text><line x1="314.0" y1="275.0" x2="334.0" y2="275.0" stroke="#76a99a" stroke-width="3.8" stroke-linecap="round"/><text x="340.0" y="278.0" font-size="9.8" font-weight="850" fill="#000000">dominant range</text><line x1="314.0" y1="287.0" x2="334.0" y2="287.0" stroke="#d49a8c" stroke-width="2.8" stroke-linecap="round" stroke-dasharray="5 4"/><text x="340.0" y="290.0" font-size="9.8" font-weight="850" fill="#000000">residual</text><rect x="34.0" y="418.0" width="402.0" height="34" rx="12" fill="#e7f0e9" stroke="#cbdccd"/><text x="235.0" y="432.0" text-anchor="middle" font-size="10.5" font-weight="900" fill="#000000">Hierarchy separates generic from fine pairs</text><text x="235.0" y="445.0" text-anchor="middle" font-size="9.8" fill="#000000">range/residual still come from image-text cross-covariance</text><path d="M235 92V354" stroke="#c8baad" stroke-width="1.8" stroke-dasharray="5 6"/><text x="226" y="236" text-anchor="end" font-size="10" font-weight="800" fill="#3f4d57">time-like</text><text x="226" y="250" text-anchor="end" font-size="10" font-weight="800" fill="#3f4d57">axis</text></g><rect x="52" y="586" width="286" height="28" rx="12" fill="#ffffff" stroke="#c5d9e8"/><rect x="68" y="594" width="12" height="12" rx="3" fill="#78a99a"/><text x="86" y="604" font-size="10" font-weight="800" fill="#000000">image embedding</text><circle cx="214" cy="600" r="6" fill="#9fb7d9"/><text x="228" y="604" font-size="10" font-weight="800" fill="#000000">text embedding</text><rect x="774.0" y="610.0" width="270.0" height="46.5" rx="10" fill="#e7f0e9" stroke="#cbdccd"/><text x="909.0" y="626.0" text-anchor="middle" font-size="10" font-weight="900" fill="#000000">In hyperbolic RAHA, dominant range and residual</text><text x="909.0" y="638.0" text-anchor="middle" font-size="10" font-weight="900" fill="#000000">decompose cross-covariance for one pair.</text><text x="909.0" y="650.0" text-anchor="middle" font-size="10" font-weight="900" fill="#000000">Not slope or endpoint distance along the geometry.</text></svg>